<svg id="Layer_5" data-name="Layer 5" xmlns="http://www.w3.org/2000/svg" viewBox="0 0 1266.04 259.56"><defs><style>.cls-1{fill:#5bc6d0;}.cls-2{fill:#cc2e92;}.cls-3{fill:#fff;}</style></defs><title>AV LOGO SVG</title><path class="cls-1" d="M407.69,121c-.69-1.43,6.13-5.58,19.44-14.75,31.12-21.45,34.22-26.57,48-30.53A76.81,76.81,0,0,1,501.69,73c9.28.64,20.27,3.37,33,10.58,38.89,22.06,80.17,26.08,106.36,12.2a104,104,0,0,0,27.33-21.47C683.2,56.94,684.77,41,687.88,41.59c5.88,1.12,8.16,33.17-7.32,56.6-3.35,5.08-8.08,12.24-17.08,17.17-14.73,8.07-26.43,2.23-49.26,8.08a100,100,0,0,0-20.48,7.74,61,61,0,0,0-13.93-9.36c-16.32-7.93-24.44-2.55-45.3-6.13-23.92-4.12-25.32-13.16-45.33-12.7-7,.16-13,1.42-24.65,3.84-2.92.6-8.82,1.88-28,7.2C414.4,120.16,408.31,122.32,407.69,121Z"/><path class="cls-2" d="M370.35,118.62c-.39-2.25,13.56-3.3,27.25-10.77,34.51-18.86,28.32-57.27,54.81-70.4,5.23-2.59,15.25-17.31,59.53,7.8,38.89,22.06,80.16,26.08,106.36,12.2C624.76,54,638.05,49.06,645.62,36c10-17.21,3.67-35.66,5.71-36,2.72-.41,20.31,31.38,6.49,59.89-9.68,20-29.31,27.09-37.17,30-19,6.93-35.72,4.14-46.56,2.2-30.92-5.56-30.64-17.93-55.88-23.56-26.65-6-68.19-1.37-90.83,22.89-8.48,9.09-12.89,19.42-27.25,25.35C386.3,122.43,370.75,121,370.35,118.62Z"/><g id="Layer_4" data-name="Layer 4"><path class="cls-3" d="M.42,243.11c1.37-6.65,6.79-10.74,7.79-11.52,5.17-4.07,10.63-18.08,21.54-46.1,0,0,15.57-39.89,24.89-76.88.06-.24.44-1.76,1-3.78,3.4-12.33,5.1-18.5,8-22,5.47-6.54,15.3-6.4,27.12-6.22,10.76.15,20.51.3,24.42,6.45,1.12,1.76,1.89,8,3.41,20.32.28,2.31.42,3.46.59,4.93,1.06,9.6,13.85,97.18,22.52,130.78.55,2.13,2,7.63-.85,11.62-2.24,3.14-6.42,4.36-15.4,4.79-18.07.85-27.11,1.28-31.44-3.88-7.72-9.2,6.63-23.94-.44-34-7.28-10.39-33.09-10.32-41.4.71-7.53,10,1,26.72-7.26,31.76-1,.63-1,.27-9.3,1.13-10,1-12.27,1.81-20,2.27-10.86.65-12.88-.47-14.07-1.81C-.81,248.9.14,244.45.42,243.11Zm88.71-57.27a6.15,6.15,0,0,0,1-4.05c-1-16.44-3.6-45.11-3.85-59.69-.1-6.11.19-12-.8-12.15s-2.51,6.2-4.23,12c-4.7,16-16.67,46.49-20.21,59.18-.28,1-.85,3.16.24,4.83.69,1.06,2,1.78,6.87,2.38a55.55,55.55,0,0,0,13.58,0C86.83,187.79,88.27,187,89.13,185.84Z"/><path class="cls-3" d="M222.88,245c-2.54-.33-4.44.92-7.26,2.6a73.22,73.22,0,0,1-13.08,7,51.31,51.31,0,0,1-18.92,3.17q-11.43,0-18.55-4.32a27.54,27.54,0,0,1-10.79-12.06A49.32,49.32,0,0,1,150,223a119.13,119.13,0,0,1,1.14-23.37l8.13-56.9a33.57,33.57,0,0,1,.41-3.36c.28-1.56,1.22-6.91,3.37-9.67,2.46-3.15,7.44-3.22,17.3-3.23,9.08,0,13.09.83,16.64,2.93q5,2.91,3.68,11.05l-8.38,59.43q-1.77,13,2,18.42t11.43,5.46a17.5,17.5,0,0,0,6.48-1.15,28,28,0,0,0,5.21-2.66,31.06,31.06,0,0,0,4.82-4.07c6.12-6.49,7.69-18.27,7.69-18.27,6-39.22,6.24-56.74,4.39-64.25-.21-.88-.87-3.28.37-5.11,3.17-4.67,13.47,2.21,30.21,0,5.38-.71,9.14-2.05,10.94,0,2.31,2.64-.73,8.75-1.46,10.3-3.65,7.8-8.42,28-13.5,82-.31,4.88.91,7.5,2.51,9,2.28,2.08,4.77,1.27,5.84,3.43,1,1.91,0,4.59-1.14,8a21.52,21.52,0,0,1-4.44,7.62,24.78,24.78,0,0,1-7.75,5.72,25.09,25.09,0,0,1-11,2.28,18.5,18.5,0,0,1-9-2c-2.08-1.15-1.89-1.79-5.71-4.95C226.68,246.7,224.93,245.28,222.88,245Z"/><path class="cls-3" d="M363.34,190.33Q368.16,156,384.68,140t47.24-16q28.44,0,41.53,16t8.25,50.29q-5.07,34.8-21.46,50.8t-46.86,16q-28.71,0-41.91-16T363.34,190.33Zm53.85,39.11q8.38,0,13.46-8.89t8.13-30.22q2.79-21.08.25-29.85t-10.92-8.76q-8.89,0-14.1,8.76t-8,29.85q-3,21.33-.38,30.22T417.19,229.44Z"/><path class="cls-3" d="M490.91,128.24c1.92-1.68,4.61-.57,9.57,0,12.38,1.43,17-3,20.65,0,2,1.62,3.76,5.42,1.53,15.5h.76a41.5,41.5,0,0,1,7.62-8.89,40.47,40.47,0,0,1,10.41-6.35C547,126,551.7,126,557.2,125.7c8.91-.4,14.63-.66,19.73,3.08,1.19.88,5.78,4.24,5.76,8.77,0,3.67-3,4.51-8.3,11.31-6.29,8.09-5.8,11.77-9.93,12.92-.84.24-4,.07-10.43-.26-3.72-.2-3.6-.26-5-.26a37.5,37.5,0,0,0-10.41,1.27,56.48,56.48,0,0,0-7.11,2.54,19.34,19.34,0,0,0-5.08,3.56c-11.19,40.35-11.71,60.3-9.8,71.06.44,2.46,2.39,12.26-2.14,15.55-2.08,1.51-3.92.49-12.64,0-.84,0-8.21-.42-16.08,0-8.81.46-11.37,1.6-12.68,0-2.42-2.94,2.87-10.89,5-14.32a124.54,124.54,0,0,0,15.35-45.6c1.83-14.18,1-40.27-3.19-56.17C489.78,137.16,488,130.79,490.91,128.24Z"/><path class="cls-3" d="M631.84,243.41c-2.28-.52-3.58,2.52-8.69,6.25a44,44,0,0,1-11.3,5.58,39.83,39.83,0,0,1-14.61,2.54q-11.43,0-19.17-4.44A30.79,30.79,0,0,1,566,240.77a52.33,52.33,0,0,1-5.46-19.44,109.28,109.28,0,0,1,9.27-53.46,74.49,74.49,0,0,1,15.88-22.35,69.49,69.49,0,0,1,23-14.61,79.79,79.79,0,0,1,29.47-5.21A120.82,120.82,0,0,1,656.3,127c7.07,1.09,10.33,1.22,14.09,2.8,2.46,1,6.92,2.89,9.46,6.15,5.6,7.17.74,19.61-1.08,24.7-4.27,12-8.44,30.1-8.12,57.54a21.75,21.75,0,0,0,.25,11.3c2,6.12,8,6.48,8.75,9.93,1.52,6.73-18.62,16.92-28.56,17.12a20.31,20.31,0,0,1-7.75-1.39,18.91,18.91,0,0,1-5.33-3.69C633.69,247.23,634.13,243.93,631.84,243.41Zm6.8-83.92a13,13,0,0,1-2.54-.26,26.19,26.19,0,0,0-2.66-.38c-.93-.08-1.82-.13-2.67-.13a19.52,19.52,0,0,0-9.78,2.67,30.11,30.11,0,0,0-8.51,7.37,49,49,0,0,0-6.73,11.43,53.67,53.67,0,0,0-3.94,14.6q-1.26,9.66-.25,15.62a21.91,21.91,0,0,0,3.43,9.27,11.8,11.8,0,0,0,5.84,4.45,22,22,0,0,0,7,1.14,14.79,14.79,0,0,0,4.95-.76,24.19,24.19,0,0,0,3.94-1.78,13.25,13.25,0,0,0,3.55-2.54Z"/><path class="cls-3" d="M694.43,81.76c2.61-2.78,6.67-2.89,9.71-2.93,19.57-.26,29.34-.38,30.06,0,11.61,6,7.7,29.07,8.63,86.86.64,39.55,2.68,41.45,3.51,41.53,2.35.23,5.2-13,12.12-42.16,10.19-43.06,23.22-56.36,20.89-74.37-.27-2.07-.88-5.46,1.1-8,5.54-7,24.93,1.21,35.58-3.88A21,21,0,0,1,822,77c1.6-.26,6.85-1.18,8.58.82,3.39,3.94-3.67,15.08-5.12,17.48C818.39,107,805.07,143,778.38,240c0,0-4.21,12-11.67,15.18-2.15.92-3.15.74-11.75.89-10.58.18-12.29.5-24.7.43-9.33-.05-11-.24-13-1.46-5.47-3.28-7-10-7.69-13.34-9.95-48.51-8.42-98.82-17-147.59C692.14,92.07,690.85,85.57,694.43,81.76Z"/><path class="cls-3" d="M857.78,255.24c-2,1.43-3.62.58-10.83,0a119,119,0,0,0-21.91,0c-5.23.57-7,1.29-8.41,0-3.22-3,1.06-12.33,2-14.64,4.15-9.57,8.87-29.92,10.91-77.81a29.39,29.39,0,0,0-.32-3.77c-1-6.73-3.83-8.9-4.62-12.45-1.51-6.8,5.18-15.25,12.17-19,4.71-2.5,9-2.47,14.36-2.41,5.81.06,23.12.24,26.8,8.69,2.24,5.15-2.54,8.89-6.48,22.29-1.68,5.69-1.65,7.85-3.46,23.28-6.34,54.24-9.46,51.48-8.07,60C860.21,240.9,862.05,252.13,857.78,255.24Zm.51-149.09q-11.68,0-15.88-5.21t-2.92-15.11a24.76,24.76,0,0,1,7.11-14Q852.45,66,865.14,66q8.64,0,13.72,5.46t3.81,14.36q-1.27,9.9-7.62,15.11T858.29,106.15Z"/><path class="cls-3" d="M871.75,232.14c.55-.95,5.37-9.06,11.34-8.77.91,0,.76.23,4.21,1.27.77.23,5,1.39,9.52,2.28a53.41,53.41,0,0,0,10.29,1q9.15,0,14-1.65a7.87,7.87,0,0,0,5.59-6.73q.76-4.83-4.07-8.26a50,50,0,0,0-13.46-6.22q-15.75-5.09-22.86-14.86a28.89,28.89,0,0,1-5.33-22q2.79-20.07,16.64-31.37t38.22-11.3q4.32,0,8.13.25c2.54.17,5,.42,7.37.76a39.24,39.24,0,0,1,10.54,2.8,16.51,16.51,0,0,1,7.24,5.71c2.24,3.25,2.3,6.57,2.41,9.4.14,3.83.4,10.85-3.94,13.84-2.42,1.68-5.41,1.5-9.14,1.27-3.08-.18-3.66-.78-7.88-1.4a63.39,63.39,0,0,0-9.14-.63q-8.13,0-12.57,1.52a7.23,7.23,0,0,0-5.21,5.85,7.83,7.83,0,0,0,3.56,8.5,51.54,51.54,0,0,0,13,6q17.26,5.6,24.51,14.86T970.1,216a49.12,49.12,0,0,1-6.22,18.29,45.5,45.5,0,0,1-12.07,13.33,52.6,52.6,0,0,1-17.14,8.26,78.07,78.07,0,0,1-21.46,2.79,110.2,110.2,0,0,1-17.53-1.27,125,125,0,0,1-13.72-3c-7-1.86-10.58-2.83-11.93-4.57C865.25,243.67,871.47,232.63,871.75,232.14Z"/><path class="cls-3" d="M1010.69,252.76c-2.74,3.13-7.75,2.22-18.65,1.71-4.23-.2-10.6-.4-18.5-.24a5.87,5.87,0,0,1-4-1.47c-2.59-2.55-1-7.5-.52-9.11,1.51-4.8,4.1-5.88,6.69-9.84s3.11-7.68,3.94-14.71c1.13-9.62-.21-12.08-.08-22a340.26,340.26,0,0,1,2.92-36.76,17.61,17.61,0,0,0-1-9.4c-1.61-4-3.77-4.74-4.81-8.06-1.62-5.19,1.43-10.43,1.86-11.17,6.13-10.51,23.47-9.15,25.55-9,4.23.38,13.41.68,17.78,7.36q4.83,7.38,2.54,23.62c-12,59.56-13.93,82.25-12.44,89.85C1012.29,245.24,1013.22,249.86,1010.69,252.76Zm.51-149.09q-11.7,0-15.88-5.21T992.4,83.35a24.64,24.64,0,0,1,7.11-14q5.84-5.85,18.54-5.85,8.64,0,13.72,5.47t3.81,14.35q-1.27,9.9-7.62,15.11T1011.2,103.67Z"/><path class="cls-3" d="M1026.55,192.76q4.82-34.29,21.34-50.29t47.24-16q28.44,0,41.53,16t8.25,50.29q-5.09,34.8-21.46,50.8t-46.86,16q-28.71,0-41.91-16T1026.55,192.76Zm53.85,39.11q8.38,0,13.46-8.89t8.13-30.22q2.79-21.09.25-29.85t-10.92-8.76q-8.89,0-14.1,8.76t-8,29.85q-3,21.33-.38,30.22T1080.4,231.87Z"/><path class="cls-3" d="M1259.58,219.32a29.76,29.76,0,0,0,1.14,9.4c2,6.87,5.15,7.87,5.17,11.81.06,7.74-12,13.37-13.29,14a40.25,40.25,0,0,1-14.36,2.41q-12.95,0-18-7.36t-2.79-23.62l6.09-43.18c2.45-12-4.81-22.45-13.46-23.88-5.91-1-12.32,2.27-16.51,7.87-1.69,5.76-2.83,10.6-3.58,14.09-5.23,24.42-8.68,40.5-6.67,59.56.52,4.91,1.54,11.34-1.94,14-2.44,1.86-4.79.09-14.11-.38a136.31,136.31,0,0,0-16.48.38c-7.12.61-9.11,1.39-10.56,0-3.13-3,.84-11.83,2-14.61,8.94-20.72,20.51-68.45,14.54-96.63-.67-3.16-3-12.7,1.19-15.76,1.94-1.42,4-.5,9.06,0,12.77,1.27,17.26-2.84,20.91,0,2.21,1.72,4.14,6,1.27,18h.76a40.73,40.73,0,0,1,9.4-10.16,62.85,62.85,0,0,1,12.7-7.11q7.62-3.3,19.05-3.31,11.94,0,19.31,4.32a28,28,0,0,1,11.17,12.07,46.42,46.42,0,0,1,4.32,18.41,126.45,126.45,0,0,1-1.27,23.37Z"/><path class="cls-3" d="M288.31,126.27c1.92-1.68,4.61-.57,9.58,0,12.37,1.44,16.95-3,20.65,0,2,1.62,3.75,5.42,1.52,15.5h.76a42.07,42.07,0,0,1,7.62-8.89,40.36,40.36,0,0,1,10.42-6.35c5.59-2.46,10.25-2.55,15.75-2.8,8.9-.4,14.63-.65,19.72,3.08,1.2.88,5.78,4.24,5.77,8.77,0,3.67-3,4.51-8.31,11.31-6.28,8.09-5.79,11.77-9.92,12.92-.85.24-4.05.07-10.44-.26-3.71-.19-3.6-.26-4.95-.26a37.53,37.53,0,0,0-10.42,1.27A56.48,56.48,0,0,0,329,163.1a19.68,19.68,0,0,0-5.08,3.56c-6.16,37.86-5.09,57.81-2.49,69.14.66,2.84,3.21,13-1.45,16.89-1.81,1.5-3.77,1.28-11.62.93,0,0-7.27-.33-20.69-.64-12.89-.3-16.42.6-17.7-1.65-.63-1.1-1.41-4.16,5.64-12.38h0c9.95-20.4,12.35-37,12.64-48.56.77-31.32,1.16-47-.49-53.21C287.21,135.27,285.39,128.84,288.31,126.27Z"/></g></svg>