<svg id="Layer_1" data-name="Layer 1" xmlns="http://www.w3.org/2000/svg" viewBox="0 0 1015.34 253.89"><title>TEMPORAL logo</title><path d="M670.78,112.24a3.31,3.31,0,0,1,1.93,2.89l-2.14,2,3.13,2.09c-.44-1.78-.73-3-1-4.15,1.9.17,3.8.26,5.68.53a2,2,0,0,1,1.89,2.11l0,.23-2.81-.39-2.36,6a8.56,8.56,0,0,0-1.67.2,2,2,0,0,0-1.57,2.09c.25,2.41.17,4.9,1.38,7.44a15.75,15.75,0,0,0,7.06-2c.25,1.07.5,2.09.75,3.16l4.05,1.57.33.39c-.58,1-1.54,1-2.51.93-2.41-.15-4.73-.17-6.81,1.52-.58.46-1.84,0-2.71.23-.45.11-.83.78-1,1.29-.07.15.52.78.87.85a15.11,15.11,0,0,0,2.69,0c-2.06,3.25-5.43,2.64-7.84,4.17-.27.8-.57,1.7-1,2.87l1.81,1.3a6,6,0,0,0,.42.79h.37l-.81-.75a5.64,5.64,0,0,1,1.13-1.49,8.86,8.86,0,0,1,2-.79c1.37.76.35,1.53.42,2.21s.5,1.52.58,2.29a1.44,1.44,0,0,1-1.18,1.67l-.13,0c-.78.1-1.59-.11-2.38-.06-1.4.08-2.79.26-4.4.41.11,1.32.49,2.45.19,3.35s-1.28,1.34-2,2h0c-1.63,1.18-1.62,1.31.15,2.93l.77.88-2.42,3.3a18.07,18.07,0,0,1,.64,3.34c0,1,.28,2.17-1.21,2.72-1.33.49-1.52,1.93-1.8,3.18h0c-1.84-1-1.84-1-3.53-3.44l-2.22.56c-.26-.55.09-1.47-1.32-1.81l1.3,1.82c-.13,1.09-.24,2.18-.42,3.26-.08.44-.59,1.14-.47,1.25,2.35,2.18.17,3.57-1.11,5.28l2.94,3.35L651,187.3c-.36-.25-.77-.38-.83-.6-1-3.66-1-3.66-5-5.73-1.71,1.23-1.17,3-1.11,4.83.82-.3,1.49-.79,2-.69s1,.83,1.14,1.37a33.24,33.24,0,0,1,.62,3.59l2.27.6a6.66,6.66,0,0,0,2.53,6.47c-.35,1.13-1.07,1.19-1.5.71-1.45-1.63-3.53-2.08-5.33-3l-.1-.09c-2.82-.9-5.59-2.11-8.49-2-1.12,1.34-1.24,2.54-.41,3.71,1,1.36.48,2.75.3,4.15h0l-3.82-.26-1.86-3.88-3.72-.4c-.11.62.4,1.06,2.58,2.24.62,1.69-1.38,1.41-1.86,2.5l2.32,1.79-1.35,1.88h0l-6.75-1.92h0c-1.84-.79-2.07.87-2.76,1.82l-.23.19a8.89,8.89,0,0,0-.89-.07l-.26-.39.29.36c-.46,1.43-.93,2.86-1.48,4.53l3.41-.66h0c-.56,1.17-1.11,2.35-1.67,3.53-.16.19-.33.37-.49.55a34.74,34.74,0,0,1-4.13,1.18,6.54,6.54,0,0,1-2.74-.35c-.9-.26-1.49-1.59-1-1.79a3.8,3.8,0,0,1,1.71,0c.29.05.57.44.83.41a1.83,1.83,0,0,0,1.21-.5,1.26,1.26,0,0,0,0-1.22c-.93-.81-2-1.5-2.93-2.21a5.23,5.23,0,0,0-3.35,3.51,3.37,3.37,0,0,1-3.21,2.89c.09,1.73,2.76,2.49,1.11,4.38-3.4.59-4.83-1.57-5.75-4.22-3,.09-4.22,1.1-3.47,3.56s.29,5,.2,7.86a34,34,0,0,1-5.58-2.24c-.78-.47-1-1.89-1.44-2.89h0c1,.22,2,.36,2.34-.81s-.47-1.69-1.37-2.1h0a4.7,4.7,0,0,0-3.71-4.59,11.2,11.2,0,0,1-5.58,2.43c-.67,1.75.74,3.39-.47,4.83-.6.71.23,1.05.48,1.57a3.46,3.46,0,0,1,0,3.71l-3.65-1.5c-.26-2.29-.54-4.78-.83-7.37-1.4.57-2.37-.56-3.58-1.09-.34.85-.72,1.69-1.14,2.5a23.81,23.81,0,0,1-1.7,2.29v1.18l2.83,2.76v-.05c-2.12,2.11-3.68,2.08-4.73-.13a6.23,6.23,0,0,1-.83-3.63,19.6,19.6,0,0,0-.17-3.75c-.08-1-.2-2.07-.31-3.15-3,.16-2.75,2.81-3.94,4.71h-3.51c-1.09,0-2.3-.32-3.25,0-2.65,1-5,.35-7.29-.85l-1-.94c0-.62.07-1.25.11-1.87,1.12-.31,2.53.27,3.55-1.28-1.73-.58-2.85-.29-3.53,1.29l-2,1.93h0c-2,0-3.8.42-5,2.23a2.26,2.26,0,0,1-.62.72c-3.46,2.17-4.47,5.61-5,9.35a8.91,8.91,0,0,1-.6,1.76,2.73,2.73,0,0,1-1.94-3.09,6.72,6.72,0,0,1,.62-2.28,4.51,4.51,0,0,0-.14-4.35,39.19,39.19,0,0,0,2.88-3.29c1.12-1.62.82-2.89-.79-4.09-1.27-.94-2.58-1.82-3.87-2.73h0c.31-1,.61-1.94.92-2.91,1.36.26,1.92,1.41,2.74,2.33s1.61,1.51,3,.67q-.95-1.5-1.86-3c.27-.29.54-.57.09-.09.3-.59.12-.23-.07.12-1.28-.63-2.56-1-3.85,0-2.39-.79-4.81-1.49-7.15-2.43-.57-.23-1-1.19-1.21-1.9a2.2,2.2,0,0,0-2.21-1.45h0c-.33-1-.86-1.54-2-1h0l-4.11,3.17c-.23-.14-.67-.25-.69-.42-.38-3-.37-3-3.81-3.35v-2.87c.88.3,1.47.46,2,.7s1.12.56,1.82.92l1.5-2.4c-.22-.27-.37-.64-.6-.71a18,18,0,0,1-7.09-3.81,5,5,0,0,0,.25-1.76,1.23,1.23,0,0,0-1.41-1,1.25,1.25,0,0,0-.77.45c-2.13,2.38-4.89,4-7.35,5.95a3.61,3.61,0,0,1-1.25.37c-1.13-.62-1.42-1.57-.79-2.45,1.84-2.52,3.82-5,6-7.81,0-1-1.8-2.19-.73-3.88.18-.29-.27-1.29-.69-1.54a2,2,0,0,0-1.78,0,28.06,28.06,0,0,0-2.92,2.64l-2-1c2.39-4.23,2.39-4.23,2.29-9.07l.15-.44-.16.43c-2,.68-1,2.4-1.32,4l-4.57,1.29c.24-3.82-2.32-6.63-2.4-10.14a2,2,0,0,0-.3-.89c-1.19-2-2.3-4.12-3.63-6.05-.66-.95-1.62-.91-2.2.31h0c-.46-.55-1.16-1-1.33-1.66a35.39,35.39,0,0,1-.61-4.09c.65-.08,1.5.49,2-.71-.86-.66-1.2-2.08-2.86-1.78l.91,2.51c-2.88.55-2.88.55-5.05-2.9l-3,1.8c-.4-2.47-.4-2.47,3.42-5.34.22-1,.46-2,.69-3.11l.09-.11c1.47-.8,1.51-2.3,1.89-4l-3.1-2.9-5.79,1.09c-1.18-2.2-4.38-.39-5.72-2.85,1.81-1.52,4.24-.55,5.88-1.77s2.85-2.42,4.35-3.71a.55.55,0,0,0,0-.31c-.4-1-1.22-2-.43-3.11s2-.29,3,.06a3.91,3.91,0,0,0,1.83.13c1-.18,1.16-.94,1-1.82v-1c-.92-2.07-.74-4.89-3.9-5.47l-1.7,1.34c-2.66-1-2.07-3.68-3.22-5.2.82-1.62,2-1.23,3.07-1.21h0c0,.62-.06,1.23-.09,1.9,2.41,1.43,4.09-.17,5.86-1.13l-1-4.62c1.5-.4,3-.74,4.49-1.26.47-.17,1.11-.83,1.08-1.22-.06-.8-.91-.88-1.4-.46-1.36,1.16-2.23-.09-3.25-.51-.3,1.17-.59,2.33-.89,3.49a17.21,17.21,0,0,1-1.29-2.53,3.52,3.52,0,0,1,1.22-4.26,13.45,13.45,0,0,0,1.88-2.44,27,27,0,0,1-3.49-1.83c-.28-.2-.06-1.11-.07-1.69a5.4,5.4,0,0,1,1.27.1,2.11,2.11,0,0,1,.52.26,20.56,20.56,0,0,1,2.6-3.14c.67-.55,1.77-.59,3-1-1.18-.87-2.3-1.59-3.29-2.45-1.19-1-.79-2.09.89-2.62l1.29-.38c0-2.33,0-2.33,1.29-4.85.92-1.75.81-2.17-1-4h0c.17-.56.33-1.12.49-1.69.58.18,1.42.17,1.68.56,1,1.43,1.76,3,2.62,4.52l-1.57,2.57L493,85.07c.4-1.08-.24-1.39-.79-1.63-2.2-1-2.49-2.67-1.9-4.91l6.35-3c1-.14,2.16.82,3.1-.54a3,3,0,0,0-3.09.56,12.79,12.79,0,0,1-1.43-1.22,4.84,4.84,0,0,1-.6-1.15c.69-2.21,3-.57,4.26-2.16l-1-3.92c1-1.55,3-2.67,3-5,0-.34,1-.65,1.46-1h0c1.71,2.61,1.93,2.7,4.76,2V61.94c1-1.53,2.43-2.75,2.92-4.68.19-.74,1.26-1.27,1.93-1.89a9.89,9.89,0,0,0-.08-1,2,2,0,0,1,.91-2.75l.15-.07a8.9,8.9,0,0,0,.94,1c.1.08.41-.08.62-.14-.09-.12-.16-.29-.28-.35-.43-.19-.87-.35-1.31-.52-.17-.73-.06-1.58-1.19-1.76s-1-1-.55-1.79a1.47,1.47,0,0,1,1.9-.82l.1,0a3.25,3.25,0,0,1,1.43,1.19,34.23,34.23,0,0,1,2.19,4.72,3.75,3.75,0,0,0,2.34,2.75c1.09-.9-.35-1.32-.36-2.36l4-3c-1.39-.32-2.32-.31-2.92-.74a6,6,0,0,1-1.26-2c.11-.14.23-.28.34-.43l1.27-1-1.48-.65h0v-1l.55-.3-.56.28-3.82-1.93h0c2.92-.64,2.93-.64,2.89-3.23,0-.8-.1-1.59-.16-2.39l.3-.3a8.59,8.59,0,0,1,3.93,3.24c.72-.08,1.55-.44,2.12-.19.74.31,1.09,1.64,2,.11.5-.78,1.43-.14,2.15.2,1.76.84,1.9,2.83,2.85,4.16,1.62.27,2.88-.45,4.24-.74s2.71.28,4,.45a1.28,1.28,0,0,0,.06-1.81,1.32,1.32,0,0,0-.51-.33,23.38,23.38,0,0,0-3.53-1.31c-1.43-.46-1.5-1.46-1.17-2.66l.94-.93c1.21.72,2.4,1.5,3.65,2.14a9.37,9.37,0,0,0,2.1.39c-.21-1.93-3.14-2.38-2-4.45L539,35l4.31.44c.15,1.23.29,2.4.56,4.57l1.59-3.44,1.85,1.3c.23-.17.64-.33.66-.53.2-1.7.33-3.41.48-5.12l1-.91c.9.13,2,0,2.25,1.25l-1.27,3.12a22.17,22.17,0,0,0,4.78-3.5c.29,0,.57.1.85.11.08,0,.16-.17.24-.26l-1.06.18a3.66,3.66,0,0,1-2-2.82l.15-.16,5.13-1c1.35,1,2.1,2.21,1.29,4-.22.47.1,1.19.18,1.8l.09.08,1.7,1.91.56-.31L562,34h0a13.82,13.82,0,0,0,3-1.38c2.72-2.15,5.54-3.06,8.91-1.08,1.24-1.74,1.44-3.64,1.77-5.44.46-2.49.66-5,1-7.56.1-.79.09-.79,1.68-2.1l.93,7.61,5,1.31c-1.21,1.51-4.4.91-4.09,4,1.65-.22,3.23-.78,4.65-.52s2.76,1.37,4.38,2.23l3.4-4.57.38-.38,2.7.2h0a4,4,0,0,0,.53,4.84,21.64,21.64,0,0,1,1.39,1.91h0l-1.37-.1c-.78-.06-1.63-.08-1.8.91a1.49,1.49,0,0,0,1.24,1.65,9.06,9.06,0,0,0,1.8.24L598.63,37c1,1.6,1,1.6,2.8.9h1c1.37,1.58,2.06,1.8,2.89.67a18.7,18.7,0,0,0,1.77-3.3c.51-1.11.43-2.55,2.12-3.24,1.1,1.67-1.44,3.73.76,5.37a6.78,6.78,0,0,0,1.49-1.34c1.09-1.73,2-3.55,3.07-5.33,0-.08.29,0,.48-.07.66,2.26-1,4.73.73,7l-2.17,3.74c.28.33.5.79.86,1a20.61,20.61,0,0,0,7.67,1.89c.21-.88.38-1.77.65-2.63a19.7,19.7,0,0,1,.8-2c1.32.13.83.92.93,1.45a1.36,1.36,0,0,0,1.48,1.23,1.19,1.19,0,0,0,.26-.05,4.47,4.47,0,0,0,1.75-.68c3.7-2.52,7.45-5,9.2-9.42a5.18,5.18,0,0,1,.81-1.11c1.13.19,1.51,1.19,1.08,1.74-1.6,2.11-1.86,4.72-3,7L636,40l-4.5,5.14c-.27,1.28,1.16,2.51-.6,3.18a1.87,1.87,0,0,0-.62.6c1.38,1.56.08,3.25-.11,5.36,2.66-1.26,2.3-4.22,4.29-5.42,2.29.95,1.41,3.46,2.52,4.82s1.4,3.09,1.09,5.32l3.18-2.09c1.35.87,2.74,1.62,3.46,3.15l0,.07c-.3,1.27-.61,2.54-.92,3.81a1.3,1.3,0,0,1-.16.44l.14-.46c5.9.35,6.26.43,8.71,2L649,67.51c0,.29,0,.71.12.83,1.38,1,2.8,2,3.85,2.77,1.48,1.69-.06,3.92,1.89,5.13,2.59-1.23,5.26-2.47,7.89-3.76a5,5,0,0,1,5,.07h0l2,1h0c-.81.83-2.44,1.12-1.87,2.86l-.07.07-3.41,1.39c-.64,4.77-1.61,3.79-4.63,2.68-1,2.38.55,4.24,1.34,6.16.48,1.16,1.81,1.11,2.9,1.27h0L663,90h-2.18a4.52,4.52,0,0,0,1.27,3.63c.33-1.33.61-2.5.89-3.66,1.63,1.16,3.88,1.53,4.68,3.73l.35.23,1.7-.11c.54.76,1.08,1.53,1.82,2.56l-3.1,1.83c-1.32,2.4-.74,4.85.39,7.45a49.24,49.24,0,0,1,1.85,6.4,2.91,2.91,0,0,0-.47.69,2,2,0,0,0,.18.52c.06-.12.11-.25.16-.38A1.24,1.24,0,0,0,670.78,112.24ZM666,139.11l.34-.26-.33.27V141c.21.9.11,2,1.42,2.15,1.12.11,1.44-.38,1.82-2.56L666,141c0-.68,0-1.32,0-2Zm-7.67,24-.42-.15.43.13c.29.26.58.51.05,0,.62.31.28.1-.06,0ZM492.24,164l.25.36-.28-.33v-1.93l.13-.41-.11.43c-1.09,1.08-1.09,1.08,0,1.86Zm-6.73-49,.3.37-.32-.35-1.36-1.33-.38.58Zm8.63-32.62,1.09.57.09-.2-1.16-.4c.08-.88.17-1.76.27-2.86-2.08,1.2-2.08,1.23-.71,2.67a1.38,1.38,0,0,0,.42.25Zm83.39,115.2a64.78,64.78,0,0,0,36.06-9.89c21-12.81,32.4-31.79,34.76-56.06A72.31,72.31,0,0,0,607.86,60.3c-14.64-7-30.12-8.47-45.89-5.42-22.49,4.37-38.75,17.42-49.53,37.39-7.4,13.71-9.29,28.61-7.24,43.79,2.65,19.58,12.28,35.49,28,47.48,12.76,9.76,27.31,14.39,44.33,14.11Zm-93.9-91.31c.47-.2,1.12-.29,1.17-.51.21-1.08.21-2.21.39-3.3s.48-2.34.73-3.52c-1.58-.41-2.6,0-2.62,1.4a59.31,59.31,0,0,0,.33,6Zm97-71.53a21.19,21.19,0,0,0,3.38,0A1.56,1.56,0,0,0,585.12,33a1.92,1.92,0,0,0-.49-1.25c-.77-.65-1.47-.12-2,.44a32.06,32.06,0,0,0-2,2.66Zm68.12,40.66c1.8.23,2.31.1,2.31-.69a5.86,5.86,0,0,0-.64-2s-.67,0-.74.19c-.32.81-.59,1.65-.9,2.53ZM528.34,202c0,1-.24,1.81,0,2.13.83,1,1.68.33,2.68-.47Zm133.5-45.18.54-.89a16.63,16.63,0,0,0-1.68-1.33.87.87,0,0,0-.79.27c-.15.39-.26,1.14-.1,1.23a10.8,10.8,0,0,0,2.06.75Zm-3.38,15c.34-.32.48-.4.55-.53.61-1.13.56-2.12-.13-2.42a.64.64,0,0,0-.43,0c-.79.34-1,1.23-.44,2.39a4.27,4.27,0,0,0,.45.6Zm-103.21,41.4c-.59,1.13-1,1.54-1,1.95a4.9,4.9,0,0,0,.52,1.58c0,.06.39.07.41,0a5.94,5.94,0,0,0,.55-1.6A8,8,0,0,0,555.25,213.24ZM658.9,91.81l-1.24-1c-.08.12-.27.28-.24.34.21.51.47,1,.71,1.49Zm7.79,12.91c-.3-.32-.57-.62-.83-.92-.16.22-.45.44-.44.65a1.09,1.09,0,0,0,.46.73c.09.06.43-.2.81-.42ZM645.36,69.55l-.48-.61a3.26,3.26,0,0,0-.43.66c0,.07.2.35.23.33a6.16,6.16,0,0,0,.68-.34Zm-5.8-6.18-.77-.46c-.06.21-.13.41-.19.62l.86.22a2.82,2.82,0,0,1,.1-.34ZM515.86,192.81l-.56.36a2,2,0,0,0,.69.36c.18,0,.38-.22.57-.34ZM560.43,216c.16-.21.32-.43.46-.65a2.6,2.6,0,0,0-.32-.26c-.16.22-.33.43-.46.65a2.52,2.52,0,0,0,.35.3ZM511.08,62l-.17-.37c-.12.08-.33.2-.32.23a3.81,3.81,0,0,0,.29.52ZM488.81,90.37l-.4.19.35.59c.08-.13.21-.25.22-.38s-.11-.21-.17-.34ZM605,211.5c.09-.11.28-.29.25-.33a3.12,3.12,0,0,0-.44-.45,1.74,1.74,0,0,0-.06.45.83.83,0,0,0,.25.39ZM489,97.1l-.19.37.57.27a1,1,0,0,0,0-.42c-.15-.08-.31-.08-.43-.16ZM588.57,34c.07.13.1.31.21.38s.3,0,.46.07c-.09-.21-.17-.43-.26-.64Zm78.06,80.46-.3.07.22.17Zm0,5-.24-.14v.21ZM480.46,132.71l.28-.19-.31-.15Zm13.63,36.51.05-.34-.31.1Zm12.51,13.65-.27.22.29.12ZM524.17,199v-.35l-.32.13Zm46-165.09.29-.22-.31-.13Z" transform="translate(-0.1 0)"/><path d="M305.4,181.93c.45-1.34,1-2.66,1.35-4Q318,138.48,329.25,99q7.62-26.76,15.16-53.54c.57-2,1.2-4,1.9-5.94a4.32,4.32,0,0,1,4-3,31.45,31.45,0,0,1,5.74.07c2.29.27,3.33,1.37,3.65,3.77a44.17,44.17,0,0,1,.23,5.75V205c0,1.92,0,3.84-.18,5.76a3.72,3.72,0,0,1-2.85,3.45,10.63,10.63,0,0,1-7.49-.41,3.26,3.26,0,0,1-2.06-3c-.14-1.91-.18-3.83-.18-5.75V91.33c0-1.68.3-3.42-.27-5.12-1.38.49-1.23,1.6-1.47,2.45q-6.15,21.69-12.27,43.39-7.26,25.86-14.5,51.74l-5.82,20.78c-.57,2-1.11,4-1.86,6-1.23,3.2-2.76,4.09-6.29,3.93-.64,0-1.28-.12-1.91-.17a4.74,4.74,0,0,1-4.34-3.25,40.93,40.93,0,0,1-1.35-4.1q-6.61-23.31-13.18-46.63Q274.79,128,265.71,95.7c-1-3.37-1.87-6.76-2.79-10.12-1.27,0-.89.84-.91,1.32-.08,1.6,0,3.2,0,4.8V204.94a42.35,42.35,0,0,1-.26,5.74c-.34,2.37-1.35,3.31-3.8,3.59a28,28,0,0,1-5.71.14,3.7,3.7,0,0,1-3.48-3.44,45.73,45.73,0,0,1-.3-5.73V45.45a42.51,42.51,0,0,1,.15-4.79c.26-2.35,1.22-3.34,3.59-3.87a17,17,0,0,1,3.33-.34c4.75,0,6.28,1.08,7.61,5.6q6.71,22.79,13.33,45.58,8.63,29.48,17.23,58.94c3.18,10.9,6.33,21.81,9.53,32.7a25.49,25.49,0,0,0,1.21,2.91Z" transform="translate(-0.1 0)"/><path d="M699.56,125.31V46.13a47.7,47.7,0,0,1,.28-5.73,4.12,4.12,0,0,1,3.74-3.8,20.71,20.71,0,0,1,3.34-.27h18.71c5.1,0,9.44,1.6,12.69,5.61a53.94,53.94,0,0,1,5,7,65.48,65.48,0,0,1,8.21,29.78c.28,6.22.22,12.48,0,18.7a69.44,69.44,0,0,1-5.14,23.79,35.75,35.75,0,0,1-7,11.38c-1.62,1.71-2.17,3.42-1.1,5.61,5,10.18,6.69,21.31,9.24,32.19,2.73,11.67,5.29,23.39,7.89,35.09a36.53,36.53,0,0,1,.88,5.19,2.85,2.85,0,0,1-2.37,3.27,2.45,2.45,0,0,1-.38,0,53.62,53.62,0,0,1-7.17.09,3.62,3.62,0,0,1-3.4-2.92c-.53-1.84-.92-3.72-1.31-5.6-2.83-13.46-5.46-27-8.53-40.35a180.15,180.15,0,0,0-5.66-18.31,22.49,22.49,0,0,0-3.42-5.73c-2.43-3.31-5.91-3.43-9.53-2.67a2.55,2.55,0,0,0-2,2.4c-.15,1.59-.2,3.19-.2,4.78v59.49c0,1.92-.05,3.84-.21,5.75a3.38,3.38,0,0,1-2.63,3.07,12.44,12.44,0,0,1-7.1-.07,3.21,3.21,0,0,1-2.36-2.76,38.4,38.4,0,0,1-.38-5.25V171.36Zm12.7-38.14v29.25a41.28,41.28,0,0,0,.11,4.31c.25,2.33,1.33,3.46,3.71,3.6a85.65,85.65,0,0,0,8.63,0,10.1,10.1,0,0,0,8.91-5.56,25.28,25.28,0,0,0,3.2-8.48c.79-5.2,1.47-10.43,2.26-15.64,1.74-11.5-.45-22.59-3.7-33.53a29.77,29.77,0,0,0-3.5-6.77,8.44,8.44,0,0,0-6.27-4,80.15,80.15,0,0,0-10.51-.15,2.66,2.66,0,0,0-2.56,2.47,38,38,0,0,0-.28,4.77q0,14.82,0,29.68Z" transform="translate(-0.1 0)"/><path d="M831.54,77.81c-1.45,4.36-1.55,8-2.08,11.65-2.23,15.34-4.34,30.69-6.48,46q-2.58,18.51-5.15,37Q815.4,190,812.94,207.6a13.6,13.6,0,0,1-.25,1.42c-.91,4.15-1.9,5-6.18,5.09a31.7,31.7,0,0,1-4.77-.24,2.6,2.6,0,0,1-2.4-2.59,25.45,25.45,0,0,1,.15-4.78c1.31-9.17,2.71-18.34,4-27.51q3.18-21.81,6.35-43.64,2.56-17.56,5.16-35.1,3.16-21.59,6.29-43.17c.71-4.91,1.37-9.82,2.1-14.72a19,19,0,0,1,.86-3.23,3.35,3.35,0,0,1,2.37-2.19,17.08,17.08,0,0,1,9-.21,4,4,0,0,1,3.07,2.75,33.82,33.82,0,0,1,1.07,4.66q2.78,18.26,5.48,36.51l6.27,42.2c1.35,9,2.8,18,4.16,27q3.21,21.35,6.36,42.68c.76,5.06,1.58,10.1,2.31,15.17s-.36,6.31-5.49,6.46h-.39c-5.56.06-6.6-.78-7.45-6.39-1.94-13-3.83-25.93-5.75-38.89-2-13.59-4.06-27.18-6.06-40.78-1.5-10.12-3-20.24-4.41-30.36-.83-5.7-1.64-11.39-2.47-17.08C832.17,80,831.93,79.34,831.54,77.81Z" transform="translate(-0.1 0)"/><path d="M407.79,125.75V51.37a103.37,103.37,0,0,1,.68-10.52c.27-2.65,1.28-3.66,3.88-4.15a23.72,23.72,0,0,1,4.29-.34h15.83a18,18,0,0,1,15.61,7.79,51.17,51.17,0,0,1,8.72,18.53,100.07,100.07,0,0,1-.12,49.85c-1.76,6.67-4.11,13.1-8.51,18.63a17.37,17.37,0,0,1-14.06,7h-7.68a24.87,24.87,0,0,0-3.34.22,2.72,2.72,0,0,0-2.5,2.52c-.15,1.59-.2,3.19-.2,4.79v58.54c0,2.08-.07,4.16-.17,6.24a3.68,3.68,0,0,1-3.2,3.65,12.3,12.3,0,0,1-3.31.4c-3.72-.25-5.14-1.56-5.36-4.83-.2-2.87-.54-5.74-.55-8.61Q407.76,163.42,407.79,125.75Zm12.59-38.88h0V116.1c0,1.44,0,2.88.11,4.31.26,2.64,1.3,3.78,3.9,3.94s5.43.11,8.15.07a9.9,9.9,0,0,0,8.7-5,29.83,29.83,0,0,0,3.69-9.81,115.58,115.58,0,0,0,2.15-27.15,82.29,82.29,0,0,0-3-19.35,26.21,26.21,0,0,0-3.91-8.17,10.39,10.39,0,0,0-8-4.74,58.19,58.19,0,0,0-8.14,0c-2.51.17-3.39,1.18-3.59,3.62-.11,1.27-.07,2.56-.07,3.83Z" transform="translate(-0.1 0)"/><path d="M142.67,125.16V44.55a30.42,30.42,0,0,1,.31-4.77,3.68,3.68,0,0,1,3.19-3.17,22.08,22.08,0,0,1,3.81-.3H189.8c4.12.25,5.43,1.5,5.73,5.5a16,16,0,0,1,0,2.4c-.32,4.3-1.61,5.64-6,5.69-8.8.09-17.6,0-26.39,0-1.6,0-3.21,0-4.8.13-1.86.15-2.62.87-2.82,2.64a32.62,32.62,0,0,0-.15,3.83v52.3a32.67,32.67,0,0,0,.23,4.31,2.62,2.62,0,0,0,2.52,2.48,30.44,30.44,0,0,0,3.82.17c7.2,0,14.4.09,21.6,0,6.32-.08,7.6,1.66,7.39,7.69a19,19,0,0,1-.21,2.38,4,4,0,0,1-3.43,3.52,26.86,26.86,0,0,1-4.3.28H161.4c-5.51,0-6,.5-6,6.06v59.5c0,4.93.85,5.79,6,5.85,8.79.09,17.59,0,26.39.05a38.81,38.81,0,0,1,4.31.16,3.52,3.52,0,0,1,3.28,3,12.61,12.61,0,0,1,.31,2.37c.22,6.1-1.43,7.58-7.06,7.55-13.11-.07-26.23,0-39.34,0-5.34,0-6.35-1.11-6.5-6.53V125.11Z" transform="translate(-0.1 0)"/><path d="M70,132v72.91a55,55,0,0,1-.19,5.74c-.22,2.13-1.18,3.09-3.3,3.54a13.08,13.08,0,0,1-2.86.27c-4.47-.09-6-1.57-6.28-6-.1-1.75,0-3.51,0-5.27V55.44c-.13-4.72-.68-5.29-5.22-5.41H9a34.72,34.72,0,0,1-4.78-.25A4.32,4.32,0,0,1,.32,46.06,13.44,13.44,0,0,1,.92,39a4,4,0,0,1,2-1.91,7.38,7.38,0,0,1,2.78-.6c1.43-.1,2.88-.08,4.32-.08H97.79c1.91,0,3.84,0,5.74.23a3.64,3.64,0,0,1,3.38,2.93,14.21,14.21,0,0,1,.49,2.83c.22,5.72-1.06,7.66-7,7.63H76.9c-6.56,0-6.8.23-6.81,6.7Q70,94.32,70,132Z" transform="translate(-0.1 0)"/><path d="M917.46,125.4V45.25a34,34,0,0,1,.37-5.24A3.7,3.7,0,0,1,921,36.79a15.08,15.08,0,0,1,3.79-.35c3.85.25,5,1.48,5.26,5.4.08,1.28,0,2.56,0,3.84V192.53c0,1.76,0,3.52.14,5.28a3,3,0,0,0,2.65,2.95,37.77,37.77,0,0,0,5.72.41h70c5.39,0,7.06.62,6.9,7v1c-.25,3.75-1.25,4.81-4.93,5.07-1.28.1-2.56.07-3.84.07H926a42.51,42.51,0,0,1-4.79-.15,3.58,3.58,0,0,1-3.54-3.32,29.27,29.27,0,0,1-.32-4.77V183.52Q917.46,154.44,917.46,125.4Z" transform="translate(-0.1 0)"/><path d="M568.93,26.6l1.55-6.11-1.9-2L570,17.17h0l3.44,3.29c-1.35,2.36-1.56,5.2-4.32,6.44Z" transform="translate(-0.1 0)"/><path d="M558.46,221.61c.5-.36,1.16-1.13,1.46-1a3.44,3.44,0,0,0,4-.44c.1,3.44-1.64,4.8-3.94,6.35-.19-1.53-.34-2.66-.48-3.79Z" transform="translate(-0.1 0)"/><path d="M598.89,37.37l-1.18-1.21c0-.9.09-1.8.13-2.7h0c2.12.5,4.25,1,6.36,1.52.1,0,.14.25.24.46l-2.76,2.83h.05Z" transform="translate(-0.1 0)"/><path d="M569.09,26.88c-.57.2-1.29.72-1.7.54a3.12,3.12,0,0,1-1.57-1.63,3.54,3.54,0,0,1,.83-3.84c1-.07,1.24.53,1.24,1.21,0,1.27-.28,2.59,1,3.44Z" transform="translate(-0.1 0)"/><path d="M539.78,223.94c3.39-1.81,3.39-1.81,4.72-4.52a2.69,2.69,0,0,1,.2,3.81l0,.05A3.84,3.84,0,0,1,539.78,223.94Z" transform="translate(-0.1 0)"/><path d="M526.11,30.13c1.32.57,1.64,1.4,1.08,2.37a4.65,4.65,0,0,1-1.62,1.62c-.44.25-1.13,0-2.28,0a21.91,21.91,0,0,0,1.87-2.1A15.18,15.18,0,0,0,526.11,30.13Z" transform="translate(-0.1 0)"/><path d="M582.68,20.79c1.35-.4,2.69-.87,4.07-1.15.49-.1,1.08.25,2.16.53-1.75,1.69-3.54,1.61-5.13,1.89-.46.07-1-.53-1.55-.81Z" transform="translate(-0.1 0)"/><path d="M605,225.49c-1.28.66-2.09,1.13-2.95,1.5-.63.27-1.32.19-1.46-.6a1.46,1.46,0,0,1,.49-1.22C602.19,224.42,603.38,224.08,605,225.49Z" transform="translate(-0.1 0)"/><path d="M515.28,43.06l-1.76.46c-.87-3-.87-3,1.94-4.47-.07,1.41-.14,2.73-.21,4Z" transform="translate(-0.1 0)"/><path d="M637.17,200.53h1.93a8.72,8.72,0,0,1,.92,1c.56.84.17,1.47-.59,1.89a1.18,1.18,0,0,1-1.66-.25,1.16,1.16,0,0,1-.2-.42,11.8,11.8,0,0,1-.38-2.28Z" transform="translate(-0.1 0)"/><path d="M616.29,218.64c.81,2.62.77,2.61-2.28,3.36C614.07,220.32,615.33,219.64,616.29,218.64Z" transform="translate(-0.1 0)"/><path d="M607.87,230.11l1.33-4c1.39,0,1.43.77,1.23,1.57C610.05,229.24,610,229.24,607.87,230.11Z" transform="translate(-0.1 0)"/><path d="M631.46,207.24a8.64,8.64,0,0,1-1.31.41,6.45,6.45,0,0,1-1.14-.26l.54-3h0c2.49.64,2.49.64,1.93,2.87Z" transform="translate(-0.1 0)"/><path d="M486.56,166c1.7,2.21,1.94,3,1.15,3.72a.47.47,0,0,1-.41.08C486.25,169.4,486.13,168.78,486.56,166Z" transform="translate(-0.1 0)"/><path d="M672.67,109.34l4-1c.89.8.54,1.4-.06,1.67a34.63,34.63,0,0,1-3.44,1.14c-.17-.71-.31-1.28-.44-1.84Z" transform="translate(-0.1 0)"/><path d="M624.74,221.6c.38-.42.47-.6.59-.64,1-.32,2.11-.56,2.94.47a.49.49,0,0,1,0,.44C627.15,222.84,626.07,222.68,624.74,221.6Z" transform="translate(-0.1 0)"/><path d="M535.38,37.37l-.94.93h0v-1c-.87-2.56-.87-2.56.78-4l.39.39C537.46,35,536.09,36.24,535.38,37.37Z" transform="translate(-0.1 0)"/><path d="M664,163l-.78-.88c0-1-.09-2-.14-2.93h0l3.86,1h0A6,6,0,0,1,664,163Z" transform="translate(-0.1 0)"/><path d="M501.73,43.24c.35-1.63,1.38-1.76,2.5-1.66.2,0,.4.35.55.58a.46.46,0,0,1-.11.4A2.9,2.9,0,0,1,501.73,43.24Z" transform="translate(-0.1 0)"/><path d="M619,40.24c.34-.74.8-1.5,1.63-.69a4.78,4.78,0,0,1,.9,2,1,1,0,0,1-.45.67.9.9,0,0,1-.82-.15c-.48-.58-.87-1.23-1.3-1.86Z" transform="translate(-0.1 0)"/><path d="M558,26.12c-.13.26-.2.67-.4.75a8.32,8.32,0,0,1-2.07.6,1.57,1.57,0,0,1-.43-1.15,1.63,1.63,0,0,1,2.11-.94l.19.09C557.65,25.57,557.8,25.9,558,26.12Z" transform="translate(-0.1 0)"/><path d="M591.13,20c1-.77,1.8-.18,2.6.29a.89.89,0,0,1,.18.84.92.92,0,0,1-.75.44C592.24,21.44,591.23,21.31,591.13,20Z" transform="translate(-0.1 0)"/><path d="M598.46,237.83c1.94-.47,3.37-.12,5.34,0C601.2,239.17,601.2,239.18,598.46,237.83Z" transform="translate(-0.1 0)"/><path d="M486.52,176.24a3.35,3.35,0,0,1,.66,1c.06.22-.19.61-.4.8-.75.7-2,.78-2,.21a3.27,3.27,0,0,1,.76-1.56C485.67,176.49,486.07,176.46,486.52,176.24Z" transform="translate(-0.1 0)"/><path d="M657.86,178.24c-.25,1.32-.43,2.3-.63,3.43C655.67,179.77,655.67,179.77,657.86,178.24Z" transform="translate(-0.1 0)"/><path d="M549.8,31.63l-1,.91a3.81,3.81,0,0,1-1.37-.32,1.74,1.74,0,0,1-.53-1.13.91.91,0,0,1,.59-.63,19.59,19.59,0,0,1,2.3.14h0Z" transform="translate(-0.1 0)"/><path d="M543,31.33a7.56,7.56,0,0,1-.43,1.4.91.91,0,0,1-.75.4.86.86,0,0,1-.59-.57,2.39,2.39,0,0,1,0-1.35c.15-.34.6-.56.92-.83C542.46,30.7,542.72,31,543,31.33Z" transform="translate(-0.1 0)"/><path d="M657.06,69.24a6.86,6.86,0,0,1,0,1.81c-.07.32-.61.52-.94.78-.19-.39-.56-.79-.53-1.16a6.94,6.94,0,0,1,.6-1.65Z" transform="translate(-0.1 0)"/><path d="M644.28,25.24c-.53-.27-.93-.33-1-.55a1.24,1.24,0,0,1,.43-1.7,1.49,1.49,0,0,1,.4-.15c.31,0,.93.55.9.8A5.4,5.4,0,0,1,644.28,25.24Z" transform="translate(-0.1 0)"/><path d="M548.74,216.78l1,.94c-.45.77-.9,1.53-1.44,2.47-1.57-.9-.78-2.42-1.38-3.36h0Z" transform="translate(-0.1 0)"/><path d="M590.15,220.67a6.94,6.94,0,0,1-1.28-1.26c-.68-1.19-.13-1.91,1.37-1.87a3.4,3.4,0,0,1,.87.28h0c-.32,1-.65,1.94-1,2.91Z" transform="translate(-0.1 0)"/><path d="M549.82,30.6a8,8,0,0,1,1.11-2,7.44,7.44,0,0,1,1.94-1c.29.67.58,1.35.88,2l-.15.15-3.78.89Z" transform="translate(-0.1 0)"/><path d="M597.57,2.81c1.14-1.12,2-1.37,3.09-.44C599.89,3.49,599,3.49,597.57,2.81Z" transform="translate(-0.1 0)"/><path d="M573.83,224.54c.07-.14.12-.29.2-.42.4-.68.87-1.37,1.76-.85a1.27,1.27,0,0,1,.38,1.15c-.46.91-1.23.62-1.95.27l-.42-.2Z" transform="translate(-0.1 0)"/><path d="M667.91,72.85a7.14,7.14,0,0,1,.9-1c.63-.49,1.44-.86,2-.13s-.06,1.36-.66,1.85c-.12.09-.25.17-.38.25h0l-2-1Z" transform="translate(-0.1 0)"/><path d="M672.46,101.24c-.47.4-.8.89-1.11.89a1.14,1.14,0,0,1-.78-.86,1.29,1.29,0,0,1,.84-.86C671.63,100.4,672,100.9,672.46,101.24Z" transform="translate(-0.1 0)"/><path d="M606.46,24.85a12.91,12.91,0,0,1-1.17-2c-.11-.28.24-.75.38-1.13.39.19.89.29,1.14.6.73.91.22,1.72-.37,2.48Z" transform="translate(-0.1 0)"/><path d="M538.93,26.81c-.23-.44-.4-.79-.58-1.14.39-.16.82-.51,1.17-.44s.5.59.74.91Z" transform="translate(-0.1 0)"/><path d="M472.37,154.92a7,7,0,0,1-1.75.72c-.2,0-.46-.58-.7-.89a5,5,0,0,1,1.31-.88C471.46,153.82,471.81,154.39,472.37,154.92Z" transform="translate(-0.1 0)"/><path d="M673.61,104.61c-.88.46-1.24.81-1.61.81a3.63,3.63,0,0,1-1.23-.48c.24-.34.47-1,.72-1A8.31,8.31,0,0,1,673.61,104.61Z" transform="translate(-0.1 0)"/><path d="M620.88,224.49c.49.76,1,1.5,1.43,2.28.07.13-.21.61-.43.69s-.73-.11-.76-.24c-.15-.88-.2-1.78-.29-2.68Z" transform="translate(-0.1 0)"/><path d="M532.57,238.48c-.35.55-.58.93-.81,1.31-.34-.24-.93-.45-1-.72s.33-.8.52-1.2Z" transform="translate(-0.1 0)"/><path d="M483.76,85.73l-1,1.31a11.34,11.34,0,0,1-1.17-1.23c-.07-.09.33-.73.44-.71A10.86,10.86,0,0,1,483.76,85.73Z" transform="translate(-0.1 0)"/><path d="M619.18,211.73l2.32-.19c-.56,2.26-1,2.36-2.81.74C618.85,212.1,619,211.92,619.18,211.73Z" transform="translate(-0.1 0)"/><path d="M612.62,225.92l-.66-1.08,1.08-.53a7.86,7.86,0,0,1,.48,1.16C613.53,225.54,613,225.73,612.62,225.92Z" transform="translate(-0.1 0)"/><path d="M646.46,206.35l-.75.76c-.41-.43-.83-.85-1.24-1.27.2-.2.53-.59.58-.56A16.33,16.33,0,0,1,646.46,206.35Z" transform="translate(-0.1 0)"/><path d="M476.88,146.78a4,4,0,0,1-.77,1.14,1.72,1.72,0,0,1-1.22.16c-.17,0-.46-.62-.39-.71a1.91,1.91,0,0,1,1-.74,4,4,0,0,1,1.38.12Z" transform="translate(-0.1 0)"/><path d="M676.52,125.61c-.58.78-.58,2.22-2.13,1.89-.09,0-.22-.24-.22-.37,0-1.68,1.4-1.27,2.38-1.48Z" transform="translate(-0.1 0)"/><path d="M496.06,68.84c-.35-.31-.76-.54-.73-.66a5.17,5.17,0,0,1,.56-1.13c.22.19.63.39.62.55A5.41,5.41,0,0,1,496.06,68.84Z" transform="translate(-0.1 0)"/><path d="M675.82,94a11.44,11.44,0,0,1-1.61.58,5.2,5.2,0,0,1-.43-1,15.27,15.27,0,0,1,1.61-.55A8.41,8.41,0,0,1,675.82,94Z" transform="translate(-0.1 0)"/><path d="M562.65,18.64c-.28.36-.41.71-.64.79a.87.87,0,0,1-1-.71.9.9,0,0,1,0-.4c.11-.23.55-.54.7-.47A4.75,4.75,0,0,1,562.65,18.64Z" transform="translate(-0.1 0)"/><path d="M644.88,60.32c.26-.18.49-.49.76-.52s1,0,1.15.22a1.36,1.36,0,0,1,0,1.24,1.25,1.25,0,0,1-1.2.25c-.34-.17-.48-.73-.71-1.12Z" transform="translate(-0.1 0)"/><path d="M610.67,221.24c-.27.34-.4.67-.62.76-.56.21-1.14-.53-.89-1.16.09-.23.57-.53.65-.47A5.44,5.44,0,0,1,610.67,221.24Z" transform="translate(-0.1 0)"/><path d="M602.83,27.16c.53,1.44.88,1.93.76,2.17s-.71.4-1.11.44a1,1,0,0,1-.39-.72A10.59,10.59,0,0,1,602.83,27.16Z" transform="translate(-0.1 0)"/><path d="M586.55,223.72a6.83,6.83,0,0,1,.51,1.87c0,.22-.61.39-.94.59-.19-.38-.52-.76-.51-1.13S586,224.43,586.55,223.72Z" transform="translate(-0.1 0)"/><path d="M555.72,227.49l2,2c-2.35.33-2.46.2-2.32-2.26Z" transform="translate(-0.1 0)"/><path d="M597.78,229.67l-.68.76c-.26-.31-.74-.63-.71-.92s.51-.59.79-.88Z" transform="translate(-0.1 0)"/><path d="M678.68,103.9c-.16.21-.25.45-.33.44-.28,0-.77-.07-.79-.19a10.58,10.58,0,0,1-.14-1.68c.27.07.68.06.79.23A5.65,5.65,0,0,1,678.68,103.9Z" transform="translate(-0.1 0)"/><path d="M567.09,3.87c-.07.25-.09.69-.22.73a10.73,10.73,0,0,1-1.69.23s-.11-.38-.07-.39a15.14,15.14,0,0,1,1.58-.74C566.79,3.66,567,3.81,567.09,3.87Z" transform="translate(-0.1 0)"/><path d="M658.28,217.15c.23.57.36.93.5,1.28a5.34,5.34,0,0,1-1.16.41c-.11,0-.45-.56-.38-.68A5.53,5.53,0,0,1,658.28,217.15Z" transform="translate(-0.1 0)"/><path d="M520.08,218.73c-.27.38-.49.81-.58.78a5.21,5.21,0,0,1-1.06-.52c.16-.22.33-.63.49-.63A4.18,4.18,0,0,1,520.08,218.73Z" transform="translate(-0.1 0)"/><path d="M623.39,219.24c-.27-.31-.63-.63-.59-.68a5.85,5.85,0,0,1,.82-.9c.18.19.56.48.52.57A6.15,6.15,0,0,1,623.39,219.24Z" transform="translate(-0.1 0)"/><path d="M650.08,54.86c-.46-.56-.91-.88-.91-1.21s.49-.58.77-.87c.21.2.59.41.59.61A5.82,5.82,0,0,1,650.08,54.86Z" transform="translate(-0.1 0)"/><path d="M476.08,95.9a6.72,6.72,0,0,1-1.22-.48c-.08,0,.1-.49.16-.75.29.07.65.06.85.24S476,95.42,476.08,95.9Z" transform="translate(-0.1 0)"/><path d="M505.12,52.93l-.87,1.12a3.7,3.7,0,0,1-.79-.79c-.07-.14.24-.67.4-.68A4.3,4.3,0,0,1,505.12,52.93Z" transform="translate(-0.1 0)"/><path d="M678.84,156l-1.13.63c-.12-.24-.39-.54-.32-.71a1,1,0,0,1,.68-.52C678.26,155.36,678.46,155.69,678.84,156Z" transform="translate(-0.1 0)"/><path d="M476,115l3-1.42c-.68,2.18-2,2.22-3.1,2.45h0l-.09-.9Z" transform="translate(-0.1 0)"/><path d="M621.81,204.36a4.27,4.27,0,0,1-1,3.84h0l-1.07-3.77.23-.19,1.79.11Z" transform="translate(-0.1 0)"/><path d="M635,202.24a5.33,5.33,0,0,1-1.12.56c-.14,0-.38-.3-.57-.47a5.53,5.53,0,0,1,1-.65C634.46,201.63,634.68,202,635,202.24Z" transform="translate(-0.1 0)"/><path d="M588,24.12c-.1.25-.19.51-.28.76l-.94-.55c.18-.21.33-.54.55-.6S587.75,24,588,24.12Z" transform="translate(-0.1 0)"/><path d="M633.82,11.72a4.75,4.75,0,0,1-1,.73,1.77,1.77,0,0,1-.56-.52,7.58,7.58,0,0,1,.79-.91Z" transform="translate(-0.1 0)"/><path d="M681.72,126.06c-.23-.58-.56-1-.45-1.23s.63-.41,1-.5c.09,0,.45.51.38.65A5.31,5.31,0,0,1,681.72,126.06Z" transform="translate(-0.1 0)"/><path d="M475.82,115.15a15.36,15.36,0,0,1-1.31-1.24c-.07-.1.2-.51.36-.75,0,0,.38,0,.42.12.25.56.46,1.15.69,1.72Z" transform="translate(-0.1 0)"/><path d="M565.66,15.7a6.12,6.12,0,0,1,1-.83c.12-.06.44.26.66.41a5.06,5.06,0,0,1-.84.89C566.37,16.24,566,15.91,565.66,15.7Z" transform="translate(-0.1 0)"/><path d="M624.61,226.18a1.3,1.3,0,0,1,1.69-.71,1.23,1.23,0,0,1,.43.28,1.31,1.31,0,0,1-1.7.71A1.29,1.29,0,0,1,624.61,226.18Z" transform="translate(-0.1 0)"/><path d="M531.87,35.58c-.29-.26-.67-.48-.64-.58a5.58,5.58,0,0,1,.57-1.08c.18.16.54.35.52.48A5,5,0,0,1,531.87,35.58Z" transform="translate(-0.1 0)"/><path d="M471.74,150c-.35-.33-.78-.64-.75-.7a6.19,6.19,0,0,1,.77-1c.22.2.64.45.61.57A5,5,0,0,1,471.74,150Z" transform="translate(-0.1 0)"/><path d="M569.69,231.3c-.36.48-.59.9-.67.87a2.84,2.84,0,0,1-1.11-.62c-.1-.09.1-.51.17-.78Z" transform="translate(-0.1 0)"/><path d="M585.62,235c.45.38.85.58.83.74A3.76,3.76,0,0,1,586,237a1.6,1.6,0,0,1-.68-.15A14,14,0,0,1,585.62,235Z" transform="translate(-0.1 0)"/><path d="M628.39,210.15c.34.23.67.33.75.53.22.56-.38,1.32-.89,1.14-.21-.08-.48-.47-.43-.64A4.51,4.51,0,0,1,628.39,210.15Z" transform="translate(-0.1 0)"/><path d="M567.65,241.43c-.33.34-.65.75-.71.72a6.86,6.86,0,0,1-.93-.78c.2-.21.46-.63.58-.59A4.79,4.79,0,0,1,567.65,241.43Z" transform="translate(-0.1 0)"/><path d="M634.19,212l.7.63a4.87,4.87,0,0,1-1,.61c-.11,0-.36-.34-.55-.53Z" transform="translate(-0.1 0)"/><path d="M519.54,211.75a5.76,5.76,0,0,1-.69.38c-.05,0-.29-.24-.27-.3a3.91,3.91,0,0,1,.4-.65Z" transform="translate(-0.1 0)"/><path d="M650.88,46.59c-.14-.21-.39-.44-.37-.64s.38-.27.59-.4l.4.66Z" transform="translate(-0.1 0)"/><path d="M521.94,208.38l.58-.65c.19.2.55.4.54.59s-.34.42-.53.63Z" transform="translate(-0.1 0)"/><path d="M642.35,52.35a5.63,5.63,0,0,1,.38.68s-.26.25-.33.22a3.47,3.47,0,0,1-.64-.44Z" transform="translate(-0.1 0)"/><path d="M672.72,109.31a2.83,2.83,0,0,1-.81-.46,1,1,0,0,1-.25-.78.8.8,0,0,1,.69-.34,1,1,0,0,1,.45.69,2.88,2.88,0,0,1-.12.92Z" transform="translate(-0.1 0)"/><path d="M504.56,58.29c.2-.23.37-.56.63-.67a2.77,2.77,0,0,1,1.27-.24c.13,0,.39.64.32.71a2.65,2.65,0,0,1-1.08.65c-.26.08-.6-.1-.9-.17Z" transform="translate(-0.1 0)"/><path d="M473.46,110.43c-.19-.22-.54-.43-.54-.65s.35-.42.55-.63l.75.87Z" transform="translate(-0.1 0)"/><path d="M508.53,197.8a7.3,7.3,0,0,1-.58-1.42c0-.19.3-.44.46-.67.19.19.55.4.53.58A7.18,7.18,0,0,1,508.53,197.8Z" transform="translate(-0.1 0)"/><path d="M574.94,8c-.15.24-.3.48-.44.72l-.87-.75c.22-.18.45-.51.67-.51S574.72,7.77,574.94,8Z" transform="translate(-0.1 0)"/><path d="M492.46,75.91l-.76.36a3.82,3.82,0,0,1-.14-.75.61.61,0,0,1,.37-.21A4.37,4.37,0,0,1,492.46,75.91Z" transform="translate(-0.1 0)"/><path d="M516.59,14.94l-.4.73-.9-.66c.21-.19.41-.51.61-.51S516.36,14.78,516.59,14.94Z" transform="translate(-0.1 0)"/><path d="M676.55,125.65c.4-.24.78-.63,1.2-.66.24,0,.53.53.8.82-.25.14-.54.44-.75.39a5.5,5.5,0,0,1-1.28-.59Z" transform="translate(-0.1 0)"/><path d="M554.87,19.11c-.26,0-.63.11-.78,0s0-.51-.05-.78c.28,0,.64-.09.8,0S554.87,18.86,554.87,19.11Z" transform="translate(-0.1 0)"/><path d="M670.61,157.64c-.16-.23-.45-.46-.44-.68s.27-.49.43-.73c.16.23.44.46.44.69S670.77,157.4,670.61,157.64Z" transform="translate(-0.1 0)"/><path d="M521.7,19.79l-.65.42c-.14-.22-.42-.49-.37-.63s.41-.29.63-.43Z" transform="translate(-0.1 0)"/><path d="M555.71,22.24c-.09.26-.19.53-.28.8l-1-.59c.19-.22.35-.57.57-.61S555.46,22.05,555.71,22.24Z" transform="translate(-0.1 0)"/><path d="M562.32,33.5a4.18,4.18,0,0,1,.14-.93,3.23,3.23,0,0,1,.54-.68c.21.17.58.34.58.52a1,1,0,0,1-.42.73,3,3,0,0,1-.88.32Z" transform="translate(-0.1 0)"/><path d="M518.63,33.08c.22.15.6.28.62.45a.77.77,0,0,1-.42.63.73.73,0,0,1-.61-.4C518.21,33.54,518.46,33.31,518.63,33.08Z" transform="translate(-0.1 0)"/><path d="M539.18,35.45a3.34,3.34,0,0,1-.5-1.24c0-.32.41-.64.63-1,.13.24.38.49.37.73a7.53,7.53,0,0,1-.3,1.33Z" transform="translate(-0.1 0)"/><path d="M585.05,217.24c-.26.06-.55.23-.76.16s-.18-.44-.26-.67c.26-.07.55-.24.75-.16S585,217,585.05,217.24Z" transform="translate(-0.1 0)"/><path d="M549.46,226.92l-1,.79c-.15-.18-.46-.43-.42-.55a1.08,1.08,0,0,1,.58-.59C548.8,226.52,549.07,226.75,549.46,226.92Z" transform="translate(-0.1 0)"/><path d="M652.46,215.37a7.55,7.55,0,0,1-1.16.17s-.2-.63-.13-.67a6.94,6.94,0,0,1,1.1-.42A5.8,5.8,0,0,0,652.46,215.37Z" transform="translate(-0.1 0)"/><path d="M618.73,35.79l.4.68a5.32,5.32,0,0,1-.78.14c-.07,0-.23-.32-.2-.35A4.41,4.41,0,0,1,618.73,35.79Z" transform="translate(-0.1 0)"/><path d="M681,142.83l-1.19.29c-.06-.24-.24-.59-.15-.71a.92.92,0,0,1,.75-.27C680.58,142.18,680.71,142.5,681,142.83Z" transform="translate(-0.1 0)"/><path d="M545.73,248.16c-.23.2-.42.51-.65.53s-.37-.34-.56-.53c.21-.18.41-.49.63-.52S545.53,248,545.73,248.16Z" transform="translate(-0.1 0)"/><path d="M618.92,40.18c-.1.69.34,1.64-.84,1.82a.46.46,0,0,1-.38-.23c-.34-1.12.6-1.23,1.26-1.56Z" transform="translate(-0.1 0)"/><path d="M607.15,245.4l-.63.42c-.13-.21-.41-.47-.36-.62s.39-.29.61-.44A4.7,4.7,0,0,0,607.15,245.4Z" transform="translate(-0.1 0)"/><path d="M506.66,44.77a.42.42,0,0,1,.32.16c0,.09,0,.23,0,.34l-.52-.25Z" transform="translate(-0.1 0)"/><path d="M532.53,211.06a3,3,0,0,1-.37.86c-.15.16-.49.15-.74.22.08-.24.1-.57.27-.72a3.26,3.26,0,0,1,.87-.33Z" transform="translate(-0.1 0)"/><path d="M620.39,18c.13,0,.27-.15.39-.12s.16.19.24.29l-.6.24Z" transform="translate(-0.1 0)"/><path d="M632.46,220.36l.16.43-.36.13Z" transform="translate(-0.1 0)"/><path d="M586.75,14.39a3.86,3.86,0,0,1-.68,0,.56.56,0,0,1,0-.36.54.54,0,0,1,.3-.21A4.35,4.35,0,0,1,586.75,14.39Z" transform="translate(-0.1 0)"/><path d="M651.63,62.58c-.13-.06-.32-.09-.36-.18s.1-.25.16-.38c.13.06.32.1.36.19S651.69,62.46,651.63,62.58Z" transform="translate(-0.1 0)"/><path d="M558.46,221.61l1.08,1.11-1.52.07A6.55,6.55,0,0,1,558.46,221.61Z" transform="translate(-0.1 0)"/><path d="M507.9,37.37l-.4.16c0-.14-.17-.3-.12-.39s.24-.12.38-.17Z" transform="translate(-0.1 0)"/><path d="M553.46,14.51c0-.13-.16-.29-.12-.38s.24-.11.37-.15l.15.39Z" transform="translate(-0.1 0)"/><path d="M494.65,64.05c.12,0,.26-.15.37-.12s.16.18.24.28l-.58.23Z" transform="translate(-0.1 0)"/><path d="M645.87,194.81l-.7,1-.45-.48,1.06-.59Z" transform="translate(-0.1 0)"/><path d="M518,37.48a2.24,2.24,0,0,1-1.75-2.09h0a2.77,2.77,0,0,1,2.07,1.76Z" transform="translate(-0.1 0)"/><path d="M681.65,109.79l.7.33c-.13.24-.21.58-.41.69s-.45-.18-.68-.29Z" transform="translate(-0.1 0)"/><path d="M598.19,30.24c-.14-.24-.38-.47-.37-.7s.39-.27.6-.4c.14.23.38.47.37.7S598.4,30.1,598.19,30.24Z" transform="translate(-0.1 0)"/><path d="M610.34,13.67l-.43-.57c.12-.06.31-.21.33-.19a4.61,4.61,0,0,1,.44.55Z" transform="translate(-0.1 0)"/><path d="M490.38,190.68l.12.33c-.11,0-.25.13-.32.1s-.09-.21-.13-.32Z" transform="translate(-0.1 0)"/><polygon points="659.39 67.02 659.14 67.31 659.02 66.96 659.39 67.02"/><path d="M501.13,187.41h-.39l.17-.63c.12.07.3.11.34.21S501.18,187.24,501.13,187.41Z" transform="translate(-0.1 0)"/><path d="M606.81,222.38c.23.12.46.24.68.37-.12.22-.22.58-.39.62s-.45-.2-.69-.31Z" transform="translate(-0.1 0)"/><path d="M549.82,223.13l-.41.7a3.84,3.84,0,0,1-.57-.57s.15-.37.19-.36A5.48,5.48,0,0,1,549.82,223.13Z" transform="translate(-0.1 0)"/><path d="M468.58,184.32c-.14.05-.3.17-.39.12s-.11-.24-.16-.38c.13-.05.3-.17.39-.12S468.53,184.24,468.58,184.32Z" transform="translate(-0.1 0)"/><path d="M598.08,8.65c-.12,0-.28.16-.37.12a.38.38,0,0,1-.12-.35c0-.08.23-.1.35-.14C598,8.4,598,8.53,598.08,8.65Z" transform="translate(-0.1 0)"/><path d="M494.33,182.34l-.23.25-.27-.49c.12,0,.26-.11.34-.07S494.28,182.24,494.33,182.34Z" transform="translate(-0.1 0)"/><path d="M560.23,8.8c-.05-.12-.16-.27-.12-.35s.23-.1.35-.15c0,.13.15.28.11.36S560.35,8.76,560.23,8.8Z" transform="translate(-0.1 0)"/><path d="M583.77,3c-.12,0-.25.13-.35.1s-.15-.17-.23-.27l.55-.19Z" transform="translate(-0.1 0)"/><path d="M546.86,3.24,546.58,3l.53-.31c0,.13.11.27.07.36S547,3.16,546.86,3.24Z" transform="translate(-0.1 0)"/><path d="M620.83,224.54a7.14,7.14,0,0,1-1.08-.61c-.07-.05.12-.45.23-.67a.52.52,0,0,1,.38.09c.2.37.35.76.52,1.14Z" transform="translate(-0.1 0)"/><path d="M572.68.17l-.35.74a5.32,5.32,0,0,1-.61-.55s.14-.37.21-.36A3.72,3.72,0,0,1,572.68.17Z" transform="translate(-0.1 0)"/><path d="M667.94,76.65l1,.69-.49.45c-.2-.35-.4-.71-.59-1.07Z" transform="translate(-0.1 0)"/><path d="M625.51,207.94c.13.06.32.09.36.18s-.1.25-.16.37c-.12-.06-.32-.09-.35-.18S625.46,208.06,625.51,207.94Z" transform="translate(-0.1 0)"/><path d="M475.06,164.24c-.13-.07-.34-.1-.38-.2s.1-.26.17-.39l.4.19Z" transform="translate(-0.1 0)"/><path d="M462.76,164.18l-.38.14.24-.52Z" transform="translate(-0.1 0)"/><path d="M592.83,27c-.27-.14-.7-.22-.77-.44a3,3,0,0,1,0-1.12,2.18,2.18,0,0,1,.77.36,2.5,2.5,0,0,1,.36.82Z" transform="translate(-0.1 0)"/><path d="M478.12,83.32c-.06.13-.09.32-.18.35s-.24-.1-.36-.15l.17-.37Z" transform="translate(-0.1 0)"/><path d="M573.46,25.58a4.84,4.84,0,0,1,.38.71s-.26.29-.32.26a3.61,3.61,0,0,1-.66-.44Z" transform="translate(-0.1 0)"/><path d="M667,160.24a2.93,2.93,0,0,1,.74-.45,1,1,0,0,1,.8.13c.13.09,0,.46,0,.71a1.88,1.88,0,0,1-1.62-.39Z" transform="translate(-0.1 0)"/><path d="M543.31,24.87l-.27.3-.32-.57c.14,0,.3-.13.4-.09S543.25,24.75,543.31,24.87Z" transform="translate(-0.1 0)"/><path d="M664.07,88.24a2.86,2.86,0,0,1,.3-.8c.13-.16.43-.19.65-.28-.07.23-.06.53-.21.68a2.61,2.61,0,0,1-.77.37Z" transform="translate(-0.1 0)"/><path d="M667.82,87.05a.42.42,0,0,1,.31.15c0,.08,0,.22,0,.34l-.51-.23Z" transform="translate(-0.1 0)"/><path d="M526.14,25l-.4.14.26-.54Z" transform="translate(-0.1 0)"/><path d="M471.72,132.36l.5.52a6.65,6.65,0,0,1-.63.39s-.25-.23-.23-.3A3.37,3.37,0,0,1,471.72,132.36Z" transform="translate(-0.1 0)"/><path d="M587.16,221.4c.12.06.32.09.35.19s-.09.24-.15.36l-.38-.17Z" transform="translate(-0.1 0)"/><path d="M469.24,113.92c0,.12.13.25.11.35s-.19.16-.28.23l-.2-.55Z" transform="translate(-0.1 0)"/><path d="M615.93,24.18c0-.12-.15-.28-.11-.36s.23-.1.35-.15c.05.12.16.28.12.36S616.06,24.14,615.93,24.18Z" transform="translate(-0.1 0)"/><path d="M637.46,23.05c-.14,0-.3.17-.39.13s-.11-.25-.16-.38c.13,0,.3-.17.39-.13S637.46,22.92,637.46,23.05Z" transform="translate(-0.1 0)"/><path d="M539.1,23.15c0-.13-.16-.29-.12-.38s.24-.1.37-.15c0,.13.17.29.12.38S539.23,23.1,539.1,23.15Z" transform="translate(-0.1 0)"/><path d="M481,95l-.37.14c0-.12-.15-.28-.11-.36s.22-.1.35-.14Z" transform="translate(-0.1 0)"/><path d="M592.73,228.24l.26-.34a3.68,3.68,0,0,1,.54.5l-.23.34Z" transform="translate(-0.1 0)"/><path d="M630,215c-.14.06-.28.17-.4.14s-.17-.2-.25-.31l.62-.24Z" transform="translate(-0.1 0)"/><path d="M572.15,229.24c0,.12-.08.29-.17.35s-.25,0-.37,0c.08-.19.17-.38.26-.56Z" transform="translate(-0.1 0)"/><path d="M587.57,229.33l-.25.33a6.28,6.28,0,0,1-.54-.49l.23-.32Z" transform="translate(-0.1 0)"/><path d="M575,230.52c-.1,0-.23.13-.32.11s-.15-.17-.22-.27l.54-.19Z" transform="translate(-0.1 0)"/><path d="M581.84,230.29l-.23.3a4.06,4.06,0,0,1-.49-.44l.21-.3Z" transform="translate(-0.1 0)"/><path d="M604.7,230.5l-.39-.18c.07-.13.1-.33.19-.37s.26.1.39.16Z" transform="translate(-0.1 0)"/><path d="M646.19,55.88l-.7-.09c0-.13,0-.38.08-.38a5.51,5.51,0,0,1,.71.08Z" transform="translate(-0.1 0)"/><path d="M553.89,233.3c-.12,0-.28.16-.36.12s-.1-.23-.14-.35l.36-.13Z" transform="translate(-0.1 0)"/><path d="M542.27,21.65c0,.13.16.28.12.37s-.23.1-.36.15l-.14-.38Z" transform="translate(-0.1 0)"/><path d="M589.58,235.06l.23-.32a3.64,3.64,0,0,1,.5.46l-.21.31Z" transform="translate(-0.1 0)"/><path d="M567.46,237c-.12,0-.25.15-.35.12s-.16-.18-.23-.27l.56-.22Z" transform="translate(-0.1 0)"/><path d="M582.23,21.24a2.71,2.71,0,0,1-.76-.43,2.1,2.1,0,0,1-.33-.75,2.8,2.8,0,0,1,1.08,0c.21.08.31.48.46.73Z" transform="translate(-0.1 0)"/><path d="M538.21,238.34l-.16-.4c.14,0,.31-.18.4-.13s.11.25.16.38Z" transform="translate(-0.1 0)"/><path d="M535.23,33.3l.82-1,.52.51-1,.86Z" transform="translate(-0.1 0)"/><path d="M523.52,239.05l-.69-.42a4.15,4.15,0,0,1,.59-.52c.06,0,.37.16.36.21A4.89,4.89,0,0,1,523.52,239.05Z" transform="translate(-0.1 0)"/><path d="M555.56,238.63c.12.06.3.08.36.18s0,.25,0,.38l-.58-.27Z" transform="translate(-0.1 0)"/><path d="M609.87,238.76c.12,0,.26-.15.37-.12s.16.18.24.29l-.58.22Z" transform="translate(-0.1 0)"/><path d="M600.05,220.91h-.38c.06-.21.11-.41.17-.61.11.07.29.11.32.21S600.09,220.78,600.05,220.91Z" transform="translate(-0.1 0)"/><path d="M581,242.24l-.48.65a4.51,4.51,0,0,1-.44-.54s.17-.33.24-.32A4.11,4.11,0,0,1,581,242.24Z" transform="translate(-0.1 0)"/><path d="M524.78,20.32c0-.13-.16-.28-.12-.37s.23-.1.35-.15c0,.13.16.29.12.37S524.9,20.24,524.78,20.32Z" transform="translate(-0.1 0)"/><path d="M483,71a4,4,0,0,1-.44.56c-.06.06-.25,0-.39,0l.1-.67Z" transform="translate(-0.1 0)"/><path d="M502.77,61.31v-1h0a3,3,0,0,1,.85.09c.17.08.26.35.38.53a1.51,1.51,0,0,1-.35.2,7.91,7.91,0,0,1-.85.13Z" transform="translate(-0.1 0)"/><path d="M683.65,65.14c.13,0,.27-.15.38-.11s.16.2.23.31l-.59.21Z" transform="translate(-0.1 0)"/><path d="M671.86,74.68l.35.17c-.06.12-.09.31-.19.34s-.23-.1-.35-.16Z" transform="translate(-0.1 0)"/><path d="M485.46,81.46a3.59,3.59,0,0,1-.27.8c-.08.12-.36.09-.55.13a1.27,1.27,0,0,1,.18-.37c.21-.19.43-.36.66-.53Z" transform="translate(-0.1 0)"/><path d="M470,88.67c0,.12.15.28.11.36s-.23.09-.36.14l-.13-.38Z" transform="translate(-0.1 0)"/><polygon points="479.96 89.49 480.32 89.61 480.03 89.81 479.96 89.49"/><polygon points="680.04 93.6 680.31 93.82 679.99 93.95 680.04 93.6"/><polygon points="461.03 99.61 461.28 99.34 461.38 99.67 461.03 99.61"/><path d="M681.46,103.88c-.22.08-.38.21-.47.17s-.12-.25-.17-.38Z" transform="translate(-0.1 0)"/><path d="M694.78,113.16a2.58,2.58,0,0,1-.74-.33c-.08-.08.06-.4.11-.61.12.06.3.08.35.17a7.08,7.08,0,0,1,.28.77Z" transform="translate(-0.1 0)"/><path d="M467.79,121.24l-.4.14c0-.13-.16-.3-.11-.39s.24-.11.38-.16Z" transform="translate(-0.1 0)"/><path d="M476.19,126.65c-.11-.05-.28-.08-.31-.16s.08-.21.12-.32.29.07.32.15S476.24,126.54,476.19,126.65Z" transform="translate(-0.1 0)"/><path d="M463.31,138.15,463,138c.06-.12.1-.31.19-.34s.24.1.37.16Z" transform="translate(-0.1 0)"/><polygon points="476.42 157.63 476.3 157.98 476.11 157.7 476.42 157.63"/><path d="M668.05,157.18l-.48.19-.15-.4Z" transform="translate(-0.1 0)"/><path d="M468.73,161.05c0-.11.07-.28.15-.31s.22.07.33.12-.07.28-.15.31S468.84,161.1,468.73,161.05Z" transform="translate(-0.1 0)"/><path d="M484.52,162.13l1,.7c-.13,0-.32.06-.38,0a6.91,6.91,0,0,1-.61-.71Z" transform="translate(-0.1 0)"/><path d="M480.53,163.77H480c-.09,0,0-.24,0-.37Z" transform="translate(-0.1 0)"/><path d="M480.76,168.76a2.27,2.27,0,0,1,.4.77c0,.19-.23.41-.36.61-.08-.11-.24-.22-.25-.33a6.36,6.36,0,0,1,.06-.87Z" transform="translate(-0.1 0)"/><path d="M683.16,170.24a.37.37,0,0,1-.3-.15c0-.08.07-.2.11-.3s.27.06.3.14S683.2,170.12,683.16,170.24Z" transform="translate(-0.1 0)"/><path d="M488.91,174.54c-.13,0-.27.14-.37.11s-.16-.19-.24-.29l.58-.21Z" transform="translate(-0.1 0)"/><path d="M655.52,174.9l-.33.12.19-.44Z" transform="translate(-0.1 0)"/><path d="M659.24,175.58a2.48,2.48,0,0,1,.81-.11c.13,0,.22.3.32.46a.86.86,0,0,1-.39,0,6.3,6.3,0,0,1-.72-.4Z" transform="translate(-0.1 0)"/><path d="M667.62,176.48a.35.35,0,0,1,.29.15c0,.08-.07.2-.11.3-.1-.05-.26-.07-.29-.15S667.58,176.58,667.62,176.48Z" transform="translate(-0.1 0)"/><polygon points="480.26 179.72 480.14 180.06 479.96 179.79 480.26 179.72"/><path d="M502.89,182.24l-.41.18-.12-.34Z" transform="translate(-0.1 0)"/><polygon points="494.13 188.43 494.1 188.06 494.43 188.2 494.13 188.43"/><path d="M656.09,189.41l-.11-.32c.11,0,.25-.13.32-.09s.08.2.12.31Z" transform="translate(-0.1 0)"/><path d="M495.59,192.24c-.12,0-.25.15-.35.13s-.16-.17-.24-.27l.56-.23Z" transform="translate(-0.1 0)"/><path d="M639.1,200.52c.08-.28.14-.58.24-.85,0-.12.2-.2.31-.3,0,.21.22.49.14.61A3.29,3.29,0,0,1,639.1,200.52Z" transform="translate(-0.1 0)"/><path d="M523,203.38a2.3,2.3,0,0,1-1.93-1.91h0l2,1h0v1Z" transform="translate(-0.1 0)"/><path d="M527.26,210.41l-.37.14c0-.12-.14-.28-.1-.36s.22-.1.34-.15Z" transform="translate(-0.1 0)"/><path d="M641.46,211.18c-.05.12-.07.31-.16.35s-.24-.09-.36-.14a.45.45,0,0,1,.16-.35C641.19,211,641.37,211.12,641.46,211.18Z" transform="translate(-0.1 0)"/><path d="M645.94,211.14c-.05-.14-.18-.3-.14-.4a.4.4,0,0,1,.37-.14c.1,0,.12.24.17.38Z" transform="translate(-0.1 0)"/><path d="M642.46,216.75c-.13,0-.31.16-.39.12s-.1-.25-.15-.39l.4-.14Z" transform="translate(-0.1 0)"/><path d="M554.31,221.67c0-.11-.13-.24-.09-.31s.2-.09.3-.13.13.24.1.31S554.46,221.63,554.31,221.67Z" transform="translate(-0.1 0)"/><path d="M571,221.78V220.6l1.49.56Z" transform="translate(-0.1 0)"/><path d="M603.07,221.92l-.26.24-.25-.49c.12,0,.26-.12.35-.08S603,221.8,603.07,221.92Z" transform="translate(-0.1 0)"/><path d="M567.17,253.53c0,.12-.07.29-.16.34s-.24,0-.37,0l.24-.55Z" transform="translate(-0.1 0)"/><path d="M612.71.94c.13,0,.26-.14.37-.11s.16.18.23.28l-.57.19Z" transform="translate(-0.1 0)"/><path d="M604.82,11.44a.41.41,0,0,1-.32-.17c0-.09.08-.21.13-.33a.42.42,0,0,1,.32.16C605,11.18,604.87,11.33,604.82,11.44Z" transform="translate(-0.1 0)"/><path d="M565.22,225.85l-.4.14.25-.54Z" transform="translate(-0.1 0)"/><path d="M584,12.24c-.23.08-.4.2-.49.15s-.11-.25-.16-.39Z" transform="translate(-0.1 0)"/><polygon points="575.25 13.42 575.62 13.39 575.48 13.71 575.25 13.42"/><path d="M550.46,15.29c0-.12-.15-.28-.11-.35s.23-.11.35-.15c0,.12.16.28.11.35S550.6,15.24,550.46,15.29Z" transform="translate(-0.1 0)"/><path d="M570,17.18a3.42,3.42,0,0,1,.26-.88c.08-.12.39-.1.6-.14a1.38,1.38,0,0,1-.18.41,7.69,7.69,0,0,1-.7.58Z" transform="translate(-0.1 0)"/><path d="M555.38,227.24a4.85,4.85,0,0,1,.06-.93c0-.13.19-.22.3-.33.14.22.41.45.39.66a2.26,2.26,0,0,1-.41.82Z" transform="translate(-0.1 0)"/><path d="M602.12,18.44l.16-.35c.12.06.31.09.34.18s-.1.23-.15.35Z" transform="translate(-0.1 0)"/><path d="M578.52,227.44l-.3-.15c.06-.1.09-.26.17-.29s.2.08.3.13Z" transform="translate(-0.1 0)"/><path d="M547.89,20.13c.12-.05.25-.15.35-.13s.15.18.22.28l-.54.21Z" transform="translate(-0.1 0)"/><path d="M550.82,22.07l-.16.32c-.11-.06-.28-.09-.31-.17s.09-.21.14-.32Z" transform="translate(-0.1 0)"/><path d="M600.17,22.4h-.36l.17-.58c.11.07.27.12.3.21S600.21,22.24,600.17,22.4Z" transform="translate(-0.1 0)"/><path d="M562.82,24.24c-.13,0-.3.16-.39.12a.42.42,0,0,1-.13-.37c0-.09.25-.11.38-.15Z" transform="translate(-0.1 0)"/><path d="M531.12,25.52l-.17.36c-.12-.06-.31-.1-.34-.19s.09-.24.15-.36Z" transform="translate(-0.1 0)"/><path d="M639.24,229.24c.11,0,.28.09.3.16a.33.33,0,0,1-.15.3,1,1,0,0,1-.31-.14Z" transform="translate(-0.1 0)"/><path d="M606.46,24.83l-.8.79c0-.13-.06-.36,0-.39a6.22,6.22,0,0,1,.83-.38Z" transform="translate(-0.1 0)"/><path d="M562.62,27.24l.14.37c-.12,0-.28.16-.36.11s-.1-.22-.14-.35Z" transform="translate(-0.1 0)"/><path d="M507.26,29.59c.11.05.27.07.32.16s0,.23,0,.35l-.54-.23Z" transform="translate(-0.1 0)"/><path d="M567.32,29.11l.17.43-.35.12Z" transform="translate(-0.1 0)"/><polygon points="545.98 232.59 545.95 232.23 546.27 232.36 545.98 232.59"/><path d="M558.92,232.54l-.36.12c0-.12-.15-.28-.11-.35s.23-.1.35-.14Z" transform="translate(-0.1 0)"/><path d="M541.31,233.24c-.06-.13-.18-.3-.14-.39a.41.41,0,0,1,.37-.15c.1,0,.12.25.17.38Z" transform="translate(-0.1 0)"/><path d="M578.17,233.07c-.12,0-.25.13-.35.11s-.14-.18-.22-.27l.55-.2Z" transform="translate(-0.1 0)"/><polygon points="600.48 233.55 600.2 233.28 600.54 233.18 600.48 233.55"/><path d="M620.46,232.83c-.05.11-.08.26-.17.31s-.22,0-.34,0l.25-.51Z" transform="translate(-0.1 0)"/><path d="M604.46,32.38c.06-.11.1-.29.18-.31a.36.36,0,0,1,.31.16,1,1,0,0,1-.15.33Z" transform="translate(-0.1 0)"/><polygon points="494.15 36.34 494.43 36.57 494.1 36.71 494.15 36.34"/><path d="M630.7,237.12l-.28-.24.5-.31c0,.13.13.27.09.36S630.81,237.06,630.7,237.12Z" transform="translate(-0.1 0)"/><path d="M502.34,38l-.18.38c-.12-.07-.31-.11-.34-.2s.1-.24.15-.37Z" transform="translate(-0.1 0)"/><path d="M534.46,37.29v1a2.37,2.37,0,0,1-.87-.11,1.31,1.31,0,0,1-.36-.21c.12-.19.2-.48.37-.56A3.13,3.13,0,0,1,534.46,37.29Z" transform="translate(-0.1 0)"/><path d="M627.57,38.24c-.11,0-.24.15-.34.12s-.14-.17-.21-.27l.53-.21Z" transform="translate(-0.1 0)"/><path d="M636.28,40.14a8.11,8.11,0,0,1,.82.31c.12,0,.19.21.28.31-.21.06-.48.21-.62.14a3,3,0,0,1-.58-.64Z" transform="translate(-0.1 0)"/><path d="M642.58,47.45l-.23.48-.39-.19Z" transform="translate(-0.1 0)"/><path d="M508.83,52.12l.18.48-.39.14Z" transform="translate(-0.1 0)"/><path d="M613.23,239.55c-.05.11-.08.26-.16.32s-.22,0-.34,0l.23-.51Z" transform="translate(-0.1 0)"/><path d="M497,53.15c0,.13.15.3.11.37s-.24.1-.37.15c0-.13-.16-.3-.11-.38S496.87,53.24,497,53.15Z" transform="translate(-0.1 0)"/><path d="M512.29,54.53c0,.34.05.69.08,1C511.46,55.29,511.46,55,512.29,54.53Z" transform="translate(-0.1 0)"/><path d="M502.8,60.34a1.47,1.47,0,0,1-.46-.11,7.44,7.44,0,0,1-.73-.52l1.17-.31h0v1Z" transform="translate(-0.1 0)"/><path d="M487.91,61.24c-.13,0-.29.16-.37.11s-.11-.23-.15-.35c.12,0,.28-.16.36-.12S487.86,61.1,487.91,61.24Z" transform="translate(-0.1 0)"/><path d="M581.18,248.48c.11.05.3.08.33.17s-.08.23-.13.35c-.12-.06-.31-.08-.34-.17S581.12,248.6,581.18,248.48Z" transform="translate(-0.1 0)"/><path d="M694.78,113.16l.29.35Z" transform="translate(-0.1 0)"/><path d="M509.14,198a.81.81,0,0,1-.31,0,1.1,1.1,0,0,1-.29-.28,1.29,1.29,0,0,1,.39.08C509,197.76,509.07,197.88,509.14,198Z" transform="translate(-0.1 0)"/><path d="M477.83,103.55l-.67-.34h.35a1.52,1.52,0,0,1,.3.32Z" transform="translate(-0.1 0)"/><path d="M507.52,62.14V63.3C506.6,63,506.69,62.56,507.52,62.14Z" transform="translate(-0.1 0)"/><path d="M504.8,58.57l-2,.83h0l1.78-1.11Z" transform="translate(-0.1 0)"/><path d="M622.77,202.42l-1,1.94h0c.32-.65.65-1.29,1-1.93Z" transform="translate(-0.1 0)"/><path d="M522.93,203.41l.29.35-.26-.38Z" transform="translate(-0.1 0)"/><path d="M476.85,146.75c.64-.69,1.3-.46,2,0l-.09.11h-1.84Z" transform="translate(-0.1 0)"/><path d="M631.46,207.24l.3.34-.28-.36Z" transform="translate(-0.1 0)"/><path d="M519,48a1.5,1.5,0,0,1,.16-2.07h0l.21,1.65A4.64,4.64,0,0,0,519,48Z" transform="translate(-0.1 0)"/><path d="M602.63,38.29l.58-.31c-.07.07-.14.17-.23.2a1.61,1.61,0,0,1-.38.08Z" transform="translate(-0.1 0)"/><path d="M560.35,34.4l2-.9h0v1h-1.87Z" transform="translate(-0.1 0)"/><path d="M516.23,35.39l-.31-.55c.07.07.17.13.21.21a2.21,2.21,0,0,1,.08.37Z" transform="translate(-0.1 0)"/><path d="M595.91,26.78l.59-.33c-.08.07-.14.18-.23.22a1.78,1.78,0,0,1-.39.07Z" transform="translate(-0.1 0)"/><polygon points="515.47 21.91 515.67 21.63 515.79 21.95 515.47 21.91"/><polygon points="557.9 14.07 558.02 14.37 557.72 14.33 557.9 14.07"/><path d="M667.77,93.84a1.47,1.47,0,0,1,2.05.12l-1.7.11Z" transform="translate(-0.1 0)"/><polygon points="456.29 158.28 455.96 158.28 456.12 157.96 456.29 158.28"/><path d="M486.46,74.74l-.11.44.13-.41Z" transform="translate(-0.1 0)"/><path d="M480.61,168.94l-.59-.52.74.34Z" transform="translate(-0.1 0)"/><path d="M486.46,74.77l1.92-1h0l-1.94.94Z" transform="translate(-0.1 0)"/><path d="M481.66,126.59v1C480.81,127.24,480.89,126.91,481.66,126.59Z" transform="translate(-0.1 0)"/><path d="M477.81,103.57l.57.29a.72.72,0,0,1-.29-.06,1,1,0,0,1-.26-.25Z" transform="translate(-0.1 0)"/><path d="M488.38,73.8l.55-.29C488.74,73.6,488.56,73.7,488.38,73.8Z" transform="translate(-0.1 0)"/><path d="M685.05,136l.83-.22-.5.6Z" transform="translate(-0.1 0)"/><polygon points="539.66 241.53 539.78 241.83 539.48 241.79 539.66 241.53"/></svg>