<!DOCTYPE svg PUBLIC "-//W3C//DTD SVG 1.1//EN" "http://www.w3.org/Graphics/SVG/1.1/DTD/svg11.dtd">
<!-- Uploaded to: SVG Repo, www.svgrepo.com, Transformed by: SVG Repo Mixer Tools -->
<svg xmlns="http://www.w3.org/2000/svg" aria-label="YouTube" role="img" viewBox="-35.84 -35.84 583.68 583.68" fill="#ed1d24" width="800px" height="800px" stroke="#ed1d24">
<g id="SVGRepo_bgCarrier" stroke-width="0"/>
<g id="SVGRepo_tracerCarrier" stroke-linecap="round" stroke-linejoin="round"/>
<g id="SVGRepo_iconCarrier">
<rect width="512" height="512" rx="15%"/>
<path d="m427 169c-4-15-17-27-32-31-34-9-239-10-278 0-15 4-28 16-32 31-9 38-10 135 0 174 4 15 17 27 32 31 36 10 241 10 278 0 15-4 28-16 32-31 9-36 9-137 0-174" fill="#ffffff"/>
<path d="m220 203v106l93-53"/>
</g>
</svg>